<mxfile modified="2023-06-08T08:47:32.162Z" host="app.diagrams.net" agent="Mozilla/5.0 (Windows NT 10.0; Win64; x64) AppleWebKit/537.36 (KHTML, like Gecko) Chrome/114.0.0.0 Safari/537.36" etag="F0nHganeBirzhg4pLoBf" version="21.3.7" type="github">
  <diagram id="Ht1M8jgEwFfnCIfOTk4-" name="Page-1">
    <mxGraphModel dx="1235" dy="679" grid="1" gridSize="10" guides="1" tooltips="1" connect="1" arrows="1" fold="1" page="1" pageScale="1" pageWidth="1169" pageHeight="827" background="none" math="0" shadow="0">
      <root>
        <mxCell id="0" />
        <mxCell id="1" parent="0" />
        <mxCell id="-QjtrjUzRDEMRZ5MF8oH-47" value="Demo linking" style="text;html=1;resizable=0;points=[];autosize=1;align=left;verticalAlign=top;spacingTop=-4;fontSize=30;fontStyle=1" parent="1" vertex="1">
          <mxGeometry x="56.5" y="64.5" width="210" height="40" as="geometry" />
        </mxCell>
        <mxCell id="-QjtrjUzRDEMRZ5MF8oH-48" value="For provider 420 &amp;amp; 745" style="text;html=1;resizable=0;points=[];autosize=1;align=left;verticalAlign=top;spacingTop=-4;fontSize=16;" parent="1" vertex="1">
          <mxGeometry x="56.5" y="114.5" width="190" height="30" as="geometry" />
        </mxCell>
        <mxCell id="SCVMTBWpLvtzJIhz15lM-1" value="" style="line;strokeWidth=2;html=1;fontSize=14;" parent="1" vertex="1">
          <mxGeometry x="20" y="10" width="1820" height="10" as="geometry" />
        </mxCell>
        <mxCell id="CMRdcGU0UILxmbiFrGiH-140" value="" style="group" parent="1" vertex="1" connectable="0">
          <mxGeometry x="1270" y="130" width="539" height="650" as="geometry" />
        </mxCell>
        <mxCell id="7OVz4w7n9kzEPWy-4BBC-3" value="" style="rounded=0;whiteSpace=wrap;html=1;fillColor=#EAEDED;fontSize=22;fontColor=#FFFFFF;strokeColor=none;labelBackgroundColor=none;" parent="CMRdcGU0UILxmbiFrGiH-140" vertex="1">
          <mxGeometry y="-9" width="539" height="599" as="geometry" />
        </mxCell>
        <mxCell id="7OVz4w7n9kzEPWy-4BBC-4" value="1" style="rounded=1;whiteSpace=wrap;html=1;fillColor=#007CBD;strokeColor=none;fontColor=#FFFFFF;fontStyle=1;fontSize=22;labelBackgroundColor=none;" parent="CMRdcGU0UILxmbiFrGiH-140" vertex="1">
          <mxGeometry x="18" y="12" width="40" height="38" as="geometry" />
        </mxCell>
        <mxCell id="7OVz4w7n9kzEPWy-4BBC-5" value="2" style="rounded=1;whiteSpace=wrap;html=1;fillColor=#007CBD;strokeColor=none;fontColor=#FFFFFF;fontStyle=1;fontSize=22;labelBackgroundColor=none;" parent="CMRdcGU0UILxmbiFrGiH-140" vertex="1">
          <mxGeometry x="16.5" y="134" width="40" height="38" as="geometry" />
        </mxCell>
        <mxCell id="7OVz4w7n9kzEPWy-4BBC-6" value="3" style="rounded=1;whiteSpace=wrap;html=1;fillColor=#007CBD;strokeColor=none;fontColor=#FFFFFF;fontStyle=1;fontSize=22;labelBackgroundColor=none;" parent="CMRdcGU0UILxmbiFrGiH-140" vertex="1">
          <mxGeometry x="16.5" y="254" width="40" height="38" as="geometry" />
        </mxCell>
        <mxCell id="7OVz4w7n9kzEPWy-4BBC-7" value="4" style="rounded=1;whiteSpace=wrap;html=1;fillColor=#007CBD;strokeColor=none;fontColor=#FFFFFF;fontStyle=1;fontSize=22;labelBackgroundColor=none;" parent="CMRdcGU0UILxmbiFrGiH-140" vertex="1">
          <mxGeometry x="16.5" y="368" width="40" height="38" as="geometry" />
        </mxCell>
        <mxCell id="7OVz4w7n9kzEPWy-4BBC-8" value="5" style="rounded=1;whiteSpace=wrap;html=1;fillColor=#007CBD;strokeColor=none;fontColor=#FFFFFF;fontStyle=1;fontSize=22;labelBackgroundColor=none;" parent="CMRdcGU0UILxmbiFrGiH-140" vertex="1">
          <mxGeometry x="18" y="485" width="40" height="38" as="geometry" />
        </mxCell>
        <mxCell id="7OVz4w7n9kzEPWy-4BBC-13" value="&lt;b&gt;Step Functions&lt;br&gt;&lt;/b&gt;&lt;br&gt;&lt;font style=&quot;font-size: 13px;&quot;&gt;The workflow is designed to automate the processing of linking demographics of two different data provider using AWS Step Functions, AWS Lambda, and AWS Batch. This workflow provides a scalable and fault-tolerant solution for handling large-scale data processing tasks.&lt;/font&gt;" style="text;html=1;align=left;verticalAlign=top;spacingTop=-4;fontSize=14;labelBackgroundColor=none;whiteSpace=wrap;" parent="CMRdcGU0UILxmbiFrGiH-140" vertex="1">
          <mxGeometry x="69.5" y="11.5" width="449" height="108.5" as="geometry" />
        </mxCell>
        <mxCell id="7OVz4w7n9kzEPWy-4BBC-14" value="&lt;h3 style=&quot;border: 0px solid rgb(217, 217, 227); box-sizing: border-box; --tw-border-spacing-x: 0; --tw-border-spacing-y: 0; --tw-translate-x: 0; --tw-translate-y: 0; --tw-rotate: 0; --tw-skew-x: 0; --tw-skew-y: 0; --tw-scale-x: 1; --tw-scale-y: 1; --tw-pan-x: ; --tw-pan-y: ; --tw-pinch-zoom: ; --tw-scroll-snap-strictness: proximity; --tw-gradient-from-position: ; --tw-gradient-via-position: ; --tw-gradient-to-position: ; --tw-ordinal: ; --tw-slashed-zero: ; --tw-numeric-figure: ; --tw-numeric-spacing: ; --tw-numeric-fraction: ; --tw-ring-inset: ; --tw-ring-offset-width: 0px; --tw-ring-offset-color: #fff; --tw-ring-color: rgba(69,89,164,.5); --tw-ring-offset-shadow: 0 0 transparent; --tw-ring-shadow: 0 0 transparent; --tw-shadow: 0 0 transparent; --tw-shadow-colored: 0 0 transparent; --tw-blur: ; --tw-brightness: ; --tw-contrast: ; --tw-grayscale: ; --tw-hue-rotate: ; --tw-invert: ; --tw-saturate: ; --tw-sepia: ; --tw-drop-shadow: ; --tw-backdrop-blur: ; --tw-backdrop-brightness: ; --tw-backdrop-contrast: ; --tw-backdrop-grayscale: ; --tw-backdrop-hue-rotate: ; --tw-backdrop-invert: ; --tw-backdrop-opacity: ; --tw-backdrop-saturate: ; --tw-backdrop-sepia: ; margin: 1rem 0px 0.5rem; line-height: 1.6; color: var(--tw-prose-headings);&quot;&gt;&lt;font style=&quot;font-size: 14px;&quot;&gt;Submit Preprocess Batch Job&lt;/font&gt;&lt;/h3&gt;&lt;p style=&quot;border: 0px solid rgb(217, 217, 227); box-sizing: border-box; --tw-border-spacing-x: 0; --tw-border-spacing-y: 0; --tw-translate-x: 0; --tw-translate-y: 0; --tw-rotate: 0; --tw-skew-x: 0; --tw-skew-y: 0; --tw-scale-x: 1; --tw-scale-y: 1; --tw-pan-x: ; --tw-pan-y: ; --tw-pinch-zoom: ; --tw-scroll-snap-strictness: proximity; --tw-gradient-from-position: ; --tw-gradient-via-position: ; --tw-gradient-to-position: ; --tw-ordinal: ; --tw-slashed-zero: ; --tw-numeric-figure: ; --tw-numeric-spacing: ; --tw-numeric-fraction: ; --tw-ring-inset: ; --tw-ring-offset-width: 0px; --tw-ring-offset-color: #fff; --tw-ring-color: rgba(69,89,164,.5); --tw-ring-offset-shadow: 0 0 transparent; --tw-ring-shadow: 0 0 transparent; --tw-shadow: 0 0 transparent; --tw-shadow-colored: 0 0 transparent; --tw-blur: ; --tw-brightness: ; --tw-contrast: ; --tw-grayscale: ; --tw-hue-rotate: ; --tw-invert: ; --tw-saturate: ; --tw-sepia: ; --tw-drop-shadow: ; --tw-backdrop-blur: ; --tw-backdrop-brightness: ; --tw-backdrop-contrast: ; --tw-backdrop-grayscale: ; --tw-backdrop-hue-rotate: ; --tw-backdrop-invert: ; --tw-backdrop-opacity: ; --tw-backdrop-saturate: ; --tw-backdrop-sepia: ; margin: 0px 0px 1.25em;&quot;&gt;&lt;font style=&quot;font-size: 13px;&quot;&gt;The workflow begins by submitting a preprocess batch job. This job utilizes an AWS Batch compute environment to run a Docker image that performs ETL operations on the data stored S3 using Amazon Athena and loads the processed data into Amazon Postgres RDS.&lt;/font&gt;&lt;br&gt;&lt;/p&gt;" style="text;html=1;align=left;verticalAlign=top;spacingTop=-4;fontSize=14;labelBackgroundColor=none;whiteSpace=wrap;" parent="CMRdcGU0UILxmbiFrGiH-140" vertex="1">
          <mxGeometry x="68.5" y="111" width="450" height="120" as="geometry" />
        </mxCell>
        <mxCell id="7OVz4w7n9kzEPWy-4BBC-15" value="&lt;h3 style=&quot;border: 0px solid rgb(217, 217, 227); box-sizing: border-box; --tw-border-spacing-x: 0; --tw-border-spacing-y: 0; --tw-translate-x: 0; --tw-translate-y: 0; --tw-rotate: 0; --tw-skew-x: 0; --tw-skew-y: 0; --tw-scale-x: 1; --tw-scale-y: 1; --tw-pan-x: ; --tw-pan-y: ; --tw-pinch-zoom: ; --tw-scroll-snap-strictness: proximity; --tw-gradient-from-position: ; --tw-gradient-via-position: ; --tw-gradient-to-position: ; --tw-ordinal: ; --tw-slashed-zero: ; --tw-numeric-figure: ; --tw-numeric-spacing: ; --tw-numeric-fraction: ; --tw-ring-inset: ; --tw-ring-offset-width: 0px; --tw-ring-offset-color: #fff; --tw-ring-color: rgba(69,89,164,.5); --tw-ring-offset-shadow: 0 0 transparent; --tw-ring-shadow: 0 0 transparent; --tw-shadow: 0 0 transparent; --tw-shadow-colored: 0 0 transparent; --tw-blur: ; --tw-brightness: ; --tw-contrast: ; --tw-grayscale: ; --tw-hue-rotate: ; --tw-invert: ; --tw-saturate: ; --tw-sepia: ; --tw-drop-shadow: ; --tw-backdrop-blur: ; --tw-backdrop-brightness: ; --tw-backdrop-contrast: ; --tw-backdrop-grayscale: ; --tw-backdrop-hue-rotate: ; --tw-backdrop-invert: ; --tw-backdrop-opacity: ; --tw-backdrop-saturate: ; --tw-backdrop-sepia: ; margin: 1rem 0px 0.5rem; line-height: 1.6; color: var(--tw-prose-headings);&quot;&gt;&lt;font style=&quot;font-size: 14px;&quot;&gt;Generate Dynamic List of Dictionaries&lt;/font&gt;&lt;/h3&gt;&lt;p style=&quot;border: 0px solid rgb(217, 217, 227); box-sizing: border-box; --tw-border-spacing-x: 0; --tw-border-spacing-y: 0; --tw-translate-x: 0; --tw-translate-y: 0; --tw-rotate: 0; --tw-skew-x: 0; --tw-skew-y: 0; --tw-scale-x: 1; --tw-scale-y: 1; --tw-pan-x: ; --tw-pan-y: ; --tw-pinch-zoom: ; --tw-scroll-snap-strictness: proximity; --tw-gradient-from-position: ; --tw-gradient-via-position: ; --tw-gradient-to-position: ; --tw-ordinal: ; --tw-slashed-zero: ; --tw-numeric-figure: ; --tw-numeric-spacing: ; --tw-numeric-fraction: ; --tw-ring-inset: ; --tw-ring-offset-width: 0px; --tw-ring-offset-color: #fff; --tw-ring-color: rgba(69,89,164,.5); --tw-ring-offset-shadow: 0 0 transparent; --tw-ring-shadow: 0 0 transparent; --tw-shadow: 0 0 transparent; --tw-shadow-colored: 0 0 transparent; --tw-blur: ; --tw-brightness: ; --tw-contrast: ; --tw-grayscale: ; --tw-hue-rotate: ; --tw-invert: ; --tw-saturate: ; --tw-sepia: ; --tw-drop-shadow: ; --tw-backdrop-blur: ; --tw-backdrop-brightness: ; --tw-backdrop-contrast: ; --tw-backdrop-grayscale: ; --tw-backdrop-hue-rotate: ; --tw-backdrop-invert: ; --tw-backdrop-opacity: ; --tw-backdrop-saturate: ; --tw-backdrop-sepia: ; margin: 0px 0px 1.25em;&quot;&gt;&lt;font style=&quot;font-size: 13px;&quot;&gt;Upon completion of the preprocess batch job, a Lambda function is triggered. This Lambda function generates a dynamic list of dictionaries, where each dictionary represents a parallel batch job that will be executed in the subsequent steps.&lt;/font&gt;&lt;/p&gt;" style="text;html=1;align=left;verticalAlign=top;spacingTop=-4;fontSize=14;labelBackgroundColor=none;whiteSpace=wrap;" parent="CMRdcGU0UILxmbiFrGiH-140" vertex="1">
          <mxGeometry x="68.5" y="231" width="450" height="117" as="geometry" />
        </mxCell>
        <mxCell id="7OVz4w7n9kzEPWy-4BBC-16" value="&lt;h3 style=&quot;border: 0px solid rgb(217, 217, 227); box-sizing: border-box; --tw-border-spacing-x: 0; --tw-border-spacing-y: 0; --tw-translate-x: 0; --tw-translate-y: 0; --tw-rotate: 0; --tw-skew-x: 0; --tw-skew-y: 0; --tw-scale-x: 1; --tw-scale-y: 1; --tw-pan-x: ; --tw-pan-y: ; --tw-pinch-zoom: ; --tw-scroll-snap-strictness: proximity; --tw-gradient-from-position: ; --tw-gradient-via-position: ; --tw-gradient-to-position: ; --tw-ordinal: ; --tw-slashed-zero: ; --tw-numeric-figure: ; --tw-numeric-spacing: ; --tw-numeric-fraction: ; --tw-ring-inset: ; --tw-ring-offset-width: 0px; --tw-ring-offset-color: #fff; --tw-ring-color: rgba(69,89,164,.5); --tw-ring-offset-shadow: 0 0 transparent; --tw-ring-shadow: 0 0 transparent; --tw-shadow: 0 0 transparent; --tw-shadow-colored: 0 0 transparent; --tw-blur: ; --tw-brightness: ; --tw-contrast: ; --tw-grayscale: ; --tw-hue-rotate: ; --tw-invert: ; --tw-saturate: ; --tw-sepia: ; --tw-drop-shadow: ; --tw-backdrop-blur: ; --tw-backdrop-brightness: ; --tw-backdrop-contrast: ; --tw-backdrop-grayscale: ; --tw-backdrop-hue-rotate: ; --tw-backdrop-invert: ; --tw-backdrop-opacity: ; --tw-backdrop-saturate: ; --tw-backdrop-sepia: ; margin: 1rem 0px 0.5rem; line-height: 1.6; color: var(--tw-prose-headings);&quot;&gt;&lt;font style=&quot;font-size: 14px;&quot;&gt;Map State (Parallel Batch Jobs)&lt;/font&gt;&lt;/h3&gt;&lt;font style=&quot;font-size: 13px;&quot;&gt;The workflow enters a Map state, which iterates over the dynamic list of dictionaries generated by the Lambda function. For each dictionary, a parallel batch job is submitted using the AWS SDK&#39;s &quot;.sync&quot; function, ensuring synchronous execution and tracking the completion status of each job.&lt;/font&gt;" style="text;html=1;align=left;verticalAlign=top;spacingTop=-4;fontSize=14;labelBackgroundColor=none;whiteSpace=wrap;" parent="CMRdcGU0UILxmbiFrGiH-140" vertex="1">
          <mxGeometry x="68.5" y="348" width="450" height="121" as="geometry" />
        </mxCell>
        <mxCell id="7OVz4w7n9kzEPWy-4BBC-17" value="&lt;h3 style=&quot;border: 0px solid rgb(217, 217, 227); box-sizing: border-box; --tw-border-spacing-x: 0; --tw-border-spacing-y: 0; --tw-translate-x: 0; --tw-translate-y: 0; --tw-rotate: 0; --tw-skew-x: 0; --tw-skew-y: 0; --tw-scale-x: 1; --tw-scale-y: 1; --tw-pan-x: ; --tw-pan-y: ; --tw-pinch-zoom: ; --tw-scroll-snap-strictness: proximity; --tw-gradient-from-position: ; --tw-gradient-via-position: ; --tw-gradient-to-position: ; --tw-ordinal: ; --tw-slashed-zero: ; --tw-numeric-figure: ; --tw-numeric-spacing: ; --tw-numeric-fraction: ; --tw-ring-inset: ; --tw-ring-offset-width: 0px; --tw-ring-offset-color: #fff; --tw-ring-color: rgba(69,89,164,.5); --tw-ring-offset-shadow: 0 0 transparent; --tw-ring-shadow: 0 0 transparent; --tw-shadow: 0 0 transparent; --tw-shadow-colored: 0 0 transparent; --tw-blur: ; --tw-brightness: ; --tw-contrast: ; --tw-grayscale: ; --tw-hue-rotate: ; --tw-invert: ; --tw-saturate: ; --tw-sepia: ; --tw-drop-shadow: ; --tw-backdrop-blur: ; --tw-backdrop-brightness: ; --tw-backdrop-contrast: ; --tw-backdrop-grayscale: ; --tw-backdrop-hue-rotate: ; --tw-backdrop-invert: ; --tw-backdrop-opacity: ; --tw-backdrop-saturate: ; --tw-backdrop-sepia: ; margin: 1rem 0px 0.5rem; line-height: 1.6; color: var(--tw-prose-headings);&quot;&gt;&lt;font style=&quot;font-size: 14px;&quot;&gt;Failure Handling (SNS Topic)&lt;/font&gt;&lt;/h3&gt;&lt;font style=&quot;font-size: 13px;&quot;&gt;In case of any job failures during the workflow, an SNS topic is triggered. The SNS topic sends notifications to subscribed email addresses enabling immediate error detection and response.&lt;/font&gt;" style="text;html=1;align=left;verticalAlign=top;spacingTop=-4;fontSize=14;labelBackgroundColor=none;whiteSpace=wrap;" parent="CMRdcGU0UILxmbiFrGiH-140" vertex="1">
          <mxGeometry x="68.5" y="469" width="449" height="114" as="geometry" />
        </mxCell>
        <mxCell id="TlHhYiuxW51YW4MIgqar-1" value="" style="group" vertex="1" connectable="0" parent="1">
          <mxGeometry x="191" y="40" width="978.5" height="810" as="geometry" />
        </mxCell>
        <mxCell id="CMRdcGU0UILxmbiFrGiH-24" value="" style="sketch=0;points=[[0,0,0],[0.25,0,0],[0.5,0,0],[0.75,0,0],[1,0,0],[0,1,0],[0.25,1,0],[0.5,1,0],[0.75,1,0],[1,1,0],[0,0.25,0],[0,0.5,0],[0,0.75,0],[1,0.25,0],[1,0.5,0],[1,0.75,0]];outlineConnect=0;fontColor=#232F3E;gradientColor=#F78E04;gradientDirection=north;fillColor=#D05C17;strokeColor=#ffffff;dashed=0;verticalLabelPosition=bottom;verticalAlign=top;align=center;html=1;fontSize=12;fontStyle=0;aspect=fixed;shape=mxgraph.aws4.resourceIcon;resIcon=mxgraph.aws4.lambda;" parent="TlHhYiuxW51YW4MIgqar-1" vertex="1">
          <mxGeometry x="460" y="366" width="74" height="74" as="geometry" />
        </mxCell>
        <mxCell id="CMRdcGU0UILxmbiFrGiH-70" value="" style="group" parent="TlHhYiuxW51YW4MIgqar-1" vertex="1" connectable="0">
          <mxGeometry y="200" width="347.31999999999994" height="343" as="geometry" />
        </mxCell>
        <mxCell id="CMRdcGU0UILxmbiFrGiH-3" value="&amp;nbsp; &amp;nbsp; &amp;nbsp; &amp;nbsp; &amp;nbsp; &amp;nbsp; &amp;nbsp; &amp;nbsp;AWS Step Functions workflow" style="points=[[0,0],[0.25,0],[0.5,0],[0.75,0],[1,0],[1,0.25],[1,0.5],[1,0.75],[1,1],[0.75,1],[0.5,1],[0.25,1],[0,1],[0,0.75],[0,0.5],[0,0.25]];outlineConnect=0;gradientColor=none;html=1;whiteSpace=wrap;fontSize=12;fontStyle=0;container=1;pointerEvents=0;collapsible=0;recursiveResize=0;shape=mxgraph.aws4.group;grIcon=mxgraph.aws4.group_aws_step_functions_workflow;strokeColor=#CD2264;fillColor=none;verticalAlign=top;align=left;spacingLeft=30;fontColor=#CD2264;dashed=0;" parent="CMRdcGU0UILxmbiFrGiH-70" vertex="1">
          <mxGeometry y="63" width="347.32" height="280" as="geometry" />
        </mxCell>
        <mxCell id="CMRdcGU0UILxmbiFrGiH-4" value="" style="shape=image;verticalLabelPosition=bottom;labelBackgroundColor=default;verticalAlign=top;aspect=fixed;imageAspect=0;image=data:image/png,iVBORw0KGgoAAAANSUhEUgAAAjQAAAJWCAYAAABPtx1SAAAAAXNSR0IArs4c6QAAAARnQU1BAACxjwv8YQUAAAAJcEhZcwAAEnQAABJ0Ad5mH3gAAHgvSURBVHhe7d0LXFRl/gbwB0WFvIG3IK+YWXhJQS2hq5iWdMe01C5ruLWG1ZbUbkm1tVq7pbaZVttq/tcWKwusFKxMrEwwNTE10TTxzngFr6Ci8z+/l3d0gAFmuM6Zeb59TjPnPYeZMwM4D+/Vx2oAERERkYnV07dEREREpsVAQ0RERKbHQENERESmx0BDREREpsdAQ0RERKbHQENERESmx0BDREREpsdAQ0RERKbHQENERESmx0BDREREpsdAQ0RERKbHQENERESmx0BDREREpsdAQ0RERKbHQENERESmx0BDREREpsdAQ0RERKbHQENERESmx0BDREREpsdAQ0RERKbHQENERESmx0BDREREpsdAQ0RERKbHQENERESmx0BDREREpsdAQ0RERKbHQENERESmx0BDREREpudjNej7RETK8ePHkZubi5MnT+L06dM4d+4cGjRoAH9/fzRr1gwtW7bUZxIRuQcGGiIvd+DAAWT9+gu2bF6HXbt249zZ02h6UT0ENq2Hxn5WNPS1ol49H5wpBPJP18OR4+dw6GghrPBVwebSLpfjiu590KVLF/2IRES1j4GGyAvt3bsXGcu+wrp16xDQBOjeqR4ub3cOHYMa6jOcc+hIIbbsPousXb7IzjmNtm3bof81N6FX7z76DCKi2sFAQ+RFVq9ajsVfLYCfbwGu6e6Dq0Ib6CPVY9ue08jYVB+bd55Bv35XY3D0PWjUqJE+SkRUcxhoiLzAqhXfI2Xh57isXX0MDj+H1oG++kjNWbr2HJauKUDvsHDcPWw0fHx89BEiourHQEPkwXbt2oWP//ce2jQ7hbuvsaJZ4/r6SO1JyzyH79aexqDB0bjuxlt0KRFR9WKgIfJQC+Z/iMyfV2LUTb64tG31Ni256uw5K+YuseJwfhP8YcxTaN68uT5CRFQ9GGiIPMyJEyfw3vR/IKTNKcRcqwvdxLrfz+KzH07j7pgRCOsbqUuJiKqOgYbIg2z7fQv+b9bbGHp9Q/S61D3nzTxZcA7vLihEt579MeT2+3QpEVHVMNAQeYh1a1ciad6HGHuHL4Ja1m0TkzP+7+tz8A/sgntH/UmXEBFVHgMNkQdY+3MGPk9OxDP3+qGxv3lWNPnkOysKG3TEqD+M0yVERJXDtZyITG5z1nrMT0rEX0aYK8yIe2/0Qf3TO/Dp3Pd1CRFR5TDQEJmYLFuQ+OH7+PM9jeDfyJy/zvcN8MGRA7/h26+SdQkRkesYaIhM7J1p/8ADgxogsGntzy9TncZE18PKFd8h69e1uoSIyDUMNEQm9eEH03Btz/q4rF3Nz/pbG/50ewN8lPgBzpw5o0uIiJzHQENkQpk/Z+Dooe0YGKYLPECLZvUx5KqGmPPBW7qEiMh5DDREJvR58sd4cLDn/fpGdK+HU8f34pfMn3QJEZFzGGiITOaLpDmI7NEATS/yzF/fEQN8kPzZR3qPiMg5DDREJnLy5Ems+XkVbu7rub+60sH5yksb4LtvF+oSIqKKMdAQmUjqlx9hUL+Ges9z3REBLF36rd4jIqoYAw2Riaz7ZS2u7WHuIdrOaODrg24dffFT+ne6hIiofAw0RCbxfVoqrgr1/NoZm5vCrUhb8pXeIyIqHwMNkUks+2Eprr9S73iBls3rwxf5ajZkIqKKMNAQmcDhw4fRsP5pNGvs+c1N9vp3q4eVGWl6j4iobAw0RCaQ+fNyhHf1jBmBXdH38vpY8/NqvUdEVDYGGiIT2LBuDXp1tuo97yELbp4rzMfp06d1CRGRYww0RCZw6NBBtA7wvhoacUXHRti8aZPeIyJyjIGGyM0dOnQILZpW/lfVsjYLM17/CgNHf4Khf1uGKUm/IdNSqI+6v0uDTmHb1g16j4jIMQYaIje3e/dutG9TmV/VI0j9eyKChy/EuMWHVEnejp2Y8dwXCH9tCyyqpEje2vWYMnMbsvV+darqY3cIaojdu7brPSIixxhoiNycZe92BAee0XvOK1ixDrEf7kXEk6OQu3gUlsy+19hGYdtvzyD/b50RoM8Tudu3If71/cVCTnWp6mO3CfTFgQMH9R4RkWMMNERu7vChfWjZzPVf1axf1hshogNib7ukWHgRfoGN4KfvC8ue34z/n0Hu0VPIk+1kUbly6hQs2/YibcVOY9uPbPtj4myh+poCvYuT8hgXmrTKfWwnnTtnniYyIqobDDREbu7okaOVmn8m4OK2xv93IjXzSFGBA5bFXyG46xuIfEv2VuDWvtMQKNvsvep41txPENxzGoJvScTABz8xtv+ic+/3MWaR3WOuX218zceY8fMhzH3NOL+38fUvbMG6Ch7bFT44p+8RETnGQEPk5goK8tXwZVeF3NATca2B5GeNMPLaeqRtO6WPXBB0/QBkrX4YMwfJXn+krH4CubKNvkQd9+sWhtSlxv76Z2D9zdh+egjThxzBrCczkVbs4fZj8hNfIKl+N8yYcy+W/LEDulbw2K7wNfLc2bNn9R4RUWkMNERuTj7I61dmguDAzpi+cBQm3+aHjbO/wsBbpiH4toWYtPgQ8vQpaNQIAc384K9GhDdAYDPZN7aL1FGE9O6KsLbGfqOifQS2QfSArsadI7DkFhXZRD4zFEnP9kRM/w6I6tEYfhU8tivq1/NhoCGicjHQELm5evXr4VxlW1wCL8H4qQ8j+6eHkfJCGMJPZSEh7gOEPrgCGc72ZZE+Mnv2I23tIViOlq7lOc+35ubJOWe1ol49/nNFRGXjvxBEbq5Rw0YoOF21PiR+gS0R/cBNSPnqMaQ8egksK5ZhctoJfbRsBWtXYOD1byJwwGcYN/UrRPadhs7PSiff2nWm0GrkJe+cWJCInMNAQ+TmmjRpiuP51bTsQf3GiL7nSkQZd5N3lN1ZWDm1ExPjliGt7y3YlvUYNs4pGvK97XVpcqpdVv5TRUQV4L8SRG6uRcvWOHSk+oYtF+zYB1m/OqZj86ICg5+tj4w9yxFkHjDOG9QZIXZ9eIr6xDjP4WO7yMfHu1YZJyLXMdAQubk2wR2xL8/15hZL2grEf5iFVJk7RuZ/OXAIaQuXYehzmUDrMMRe01if2Rghl8r9zUict61ovpmfjyAv0Cg3SpMX/2YEG5lD5gSyfliFuLdcaXIq47GLDjol79hZBASUnEmHiKg4BhoiN9euXXvsPuij95zndxGQNWchbpW5Y2T+l2s+wMCnVyArtB+S5t2E6EB9oiHszlswvv8JzEhIUvPNjPpsHwqadcb4t3oiZNG3CL9G5pD5L4Z+DsQ92V9/lXMcPrY+5oxd+88Y70EHvUdE5JiP1aDvE5GbevG5cXjl4UqMdzYUSO3MwUPIRnOEtpKh0+XU9pw8hYJGjeBn38Jzyvh6GdzkW7kh1+c5emwnfLG8EG2734u+/a7WJUREpbGGhsgELmrcFMdOVm4eFr9mjRDU+RJEdG5cfpgRFzkIHGo+mSqGGeHosZ2waWchLut6hd4jInKMgYbIBHr07IX127xzYrmTp+qhefMLHZiJiBxhoCEygd59rkXmVu/7dc3ccgbdu3fXe0REZWOgITKBdu3aYX/eOXhbj7cVWUC/iJv0HhFR2RhoiEyib99++GGd9zQ7nT5jheWwFSEhMniciKh8DDREJnHjTXdgaaYrA57NbUnmOVx77Q16j4iofAw0RCbRtGlTtG8fgvW/n9Elni1jw2ncdMtdeo+IqHwMNEQmEn3nKCxc4fnNTksyrQjv0xc+Pq5PKEhE3omBhshEgoODEXRJJ6za7Nmh5vu1p3Dn0Af1HhFRxRhoiEzmnhF/xILlMnWvZ/rkOysGRN3E2hkicgkDDZHJSF+aG24ciI+Xet4Y7i27C7F9vy8G3HSHLiEicg4DDZEJDbz5buQcuQjrfi/UJZ7hf4tP46HYJ/UeEZHzGGiITCr20fH47IdCHDnuGf1p/pNyFlE33YKgoCBdQkTkPAYaIpNq1qwZ7h05GtM/N/8w7gUrgIsCQ3BD1G26hIjINQw0RCbWvUcYrr1+EN6eb95Q890vwPYDTTDqoXG6hIjIdQw0RCZ3w8DbcVm3CLy3wHxNT8vWA6u3NsTjT7+oS4iIKsfHatD3icjEvk6Zh03rM/Dk0Aa6xL0tXgNs2OmHp555RZcQEVUeAw2RB/nx+6+w5JuFiLurIVoF+OpS9/PRUitOnG2DMWOf0SVERFXDQEPkYTZnrUfih//B7ZGN0O9y95qcLvfYWcxMPYsruvfB7Xc/oEuJiKqOgYbIA506dQqz3psM/3qHcf9N9dDAt+6Dzfe/nENa5hkMH/EH1ZmZiKg6MdAQebD0ZYvx1aIFGBDWCAN6102o+X3PKXz2A9Cu42UcyURENYaBhsjDya940icfYP26TAzu1wjX9Kivj9Ss7L2nkbqyHk6jKWKGj0bHjp30ESKi6sdAQ+Qljh8/jq8WfoJ169Yi7LJGuLb7ObQOrP6Ow8s3FOKHXwrRpHlr3Bx9D7peHqqPEBHVHAYaIi+0fNkSpP+4FCeO5xrhxh/dO55Bl3aN9FHXHMgrxMYdVvzyuxWHjgJh4X1w3Y3RaNmypT6DiKjmMdAQeTHpPPzL2lX4dd1qbN++HbCeQXCrhmjT3IrAJlY08T+Lhr4+8PEBzhRakX/aB0dO1MfBo/Ww9+AZtd+yZSuEduuJnr37Izg4WD8yEVHtYqAhomJycnKwf/9+5OUewvFjR7Bu/QZs2rwF98TcCf+LLkLzgFaq9kXCi7+/v/4qIqK6xUBDROVauHAh5syZg3nz5ukSIiL3w7WciIiIyPQYaIiIiMj0GGiIiIjI9BhoiIiIyPQYaIioQiEhIfoeEZF7YqAhIiIi02OgISIiItNjoCEiIiLTY6AhIiIi02OgISIiItNjoCEiIiLTY6AhIiIi02OgISIiItPjattEVMrLL7+MwsJCdT83NxdHjx5Fx44d1X5eXh7efvttdZ+IyF2whoaISmnRogU2b96stv3796OgoOD8/tmzZ/VZRETug4GGiEq566670KZNG713QYMGDRAdHa33iIjcBwMNEZXSvn17XHnllXrvgsDAQNxwww16j4jIfTDQEJFDQ4YMKVZLI7Uzt9xyC5o2bapLiIjcBwMNETlUspaGtTNE5M44yolqnYya8fX11XvF2f76P3bsmLp1RM4p77g8tr+/f4WPIarjHE++lj179uCf//wnTpw4gXvvvReDBw+us2txhNfimO0cIm/CQEM1Tob5/v777+jTp4/a/+CDD1RZSaGhoaqZQ0ydOlXdliTH5bx9+/YhMTFRlxY3duxY9aHw008/Yfny5br0Ajkm54hPPvlEfWiXxGu5cC0bNmxAfn4+evfurWps+L6Y51pkeH1QUBB69eqFrl27qjIiT8VAQzVq9+7d+Prrr9Uw4DvuuAP169fXR8gsdu7ciUOHDiEsLEyXkFkcP34c3377LbZv347LLrsMt956qz5C5HkYaKjGHDhwQP0V2aVLF9WZlIjqhoTSL7/8UoWam2++WZcSeRZ2CqYas3DhQrRt25ZhhqiOdejQAQMHDsTWrVthsVh0KZFnYaChGiG1M6dPn8btt9+uS4ioLknfmm7duuHUqVO6hMizMNBQjTh8+LCat0RGbRCRexgwYMD5NbmIPA370FCNOHfunBrqy+GjRO5DpkwQMqcQkadhDQ3ViHr16jHMELmZkydPIikpSe8ReRYGGqoRMo/Gjz/+qPeIiIhqFgMN1ZjyZjIlIiKqTgw0REREZHoMNERERGR6DDRERERkegw0REReokmTJhg2bJjeI/IsDDRERF6iefPmaiPyRJxYj4jIS+zZs0ctS9K7d29dQuQ5WENDHi9vUxrSlmbCUqALiEygpn5uV69ere8ReRYGGqoRMrHeokWL9F4lFFqQ8dEMxD88EAMHD8W4F6dg1vzK/eOe9anxGFETkXZQF9SQrNmjEBkxBsm7dYGLij7ASm4ZyDrIJFY5eUj7+62IjJ6CzDp7C/OQJd/H1Ra4egm19XNL5CkYaMj9bE/FuOuCETlyHJKzpMD4UFg8A2NiwhE336JOcT95yM5MQ8aKFGTZB5qtqZjyxixk5On9chR9gJXcItGtdQgGvpbh8gci5SArNRUZi9KNUKiLal0WkuX7+Hqa8RNCRDWJgYbcTAHS3o/FjBURmLgsF9sylmDJN8aWsQ3WM/mYNSRAn+duAhA9NRu5udmY0F8XCUs64p9NRfZxvV+hGCTuskK6tqntTA5SngtB2vMxiF/Aj0TXhCJuaa7xPUnEyHa6iIg8FgMNuZksZMy2AINiMfLaEuHF1w8BAX56x4g+eXnIyytdb1FWuVKQh6wV0pTjoPmqsMD4urzzNSEFFuNalqYhY5N9kDDO2ZShmoMyd5d4gALZLyhWk2LZpaqYkK+uqZzrKotvEKKfTUAcLJixKL3or/wS14njJR/XOL49s6jJam02Cgp1sabeH1vAOp6NTDlvRRbySpxX8fMYj2V7Hvn68l6a8b5b5H0zruf8c59X/vUqtus0vm/ZpZ7owvckY5Ol2Nerb4m9kt/jvHJevzDOz16rn1dfd7H3ryrO/ywaP0vby3vzDOX93BJRERnlRFTdVqxYYU1NTdV7rthmTbwbViDGmpitixzKsSYOM84blmjcs5dunWj8WNuXp78ijxdljXsqxhoix85vEda4L7fpswwZE42yMOuEOYnW8QOC7M6DNeTxROuSueOt0V3svz7IGjVtjf5i2/MY173L2Fk1ucRz6a3U9V5Q7OuLKfGa9HVOXrbRmvhUlDXI/lh2SqlrR5dYa9L591K/b6MnW2favta2BUVbJ2fm6/MMrj4PQqyxc+3eTyXXmv56yfc9yDpxlT5c4fXmW9NfLXGdxhbyun7fs5OsscW+J8YWZHy9ukj9WjHReAc1++/xkJDiX9clzppyQJ9nyM+cbo0p+f1+YYI1Vu6/cv4RK1D651Fe05ppJd8TWIMGGNeZq08xOP1z64Ldu3db//Of/+g9Is/CGhpyMyGIHh2HICRjVMRAxM9Oq6b+DxuR3ToWKQfyVVNO/q4UTOifgRl3jMOsrfoUJROzPs1G1DuZyD9jhTV/G2YOA7LfHoWExSGIW5AL4yMf1gNLMKG3BWlPJCFDf2UxveOwJjcXKc/JTgxmrpemD2N7P8Z4bS7auhHpctspCBfqrDIxedhQJPmOxIy0JVjybJRxLBNTRtyKKX7xSD+gm6xy0zGx1SwMfWwWsvVXKrOTkNlzItKPFZ2XmzkTI5GK+NFTkFGsBqCc58mKwsxM/X4c24ikx4Mwa2Qk4hdfeIDMN6MR+Ww6Ql5IwsYc/R7kpGFkJ3W04utdOwNxz6ch8oNtRc+jnisHKcOMj3jkIfX1oZjVZAKW2L7emo/cjAmILLdl0vgeGz9XIY+nIDdfviYXG9+JMd7nGZi1SL9LBRmYMnocklvFISlL/8wY1zbBPxMpRWdUWt6CeEQ/kYyg51KwTb3/cs2TEZ6VgMiRJb5PTv/cOqdt27YYM2aM3iPyMMYvCVG1kxqab775Ru+5LnfZZOvIHra/3IOsoSMmWpPW2/35avvru1SNR1k1NA5qPjInW8OMc8Om6r/21V/vsMbMLf6IOXNjVPnEDF2glXxcR89Tdq1LabZzjfBjNT74jS3HujFtpq7BiLBOztQn2q5zTvG/0vO/GW+Uh104T8uZN9LuGhzUWmi5ybHqccd/o2tpynqetAmqxiQ22f77YchfYp0QZDy27b237Q+ZaXVUn+DU9eprOH9NxejXMsjx4zt8rWV8j63ZiVYj0pyvecn9Mk6dV+o17ip+XsVK/jxus84cYuz3nmy9ULdXZNsH0cZzBp3/OXP655aIFNbQUI24+uqrMWjQIL3nuoBrxyNxfTZys1IwfWw4Cj5KwNCeodU72ueKMEQZN5lbctxoBEoyxvQMRGCgbMHoFjUGiQeiMH1VKsaXnAvN11/fKZK1Ic34fyBytxT1y7BtGw8WP68sAT0j1PuRtqGo3895JZ9nbSosxpkRPUtUg/h1Q7h8yz/NLqpl2J2NDIsRWQaFQ+pTSnLqentHY2J/YMqD4Rj1RnKJfktBiBo2EkGLx2BgdDxmLS2jH4wzfPWtlr1V6sRiEBVWzZ3Q87KQKbMZDApDaFHJeSE9I41XZMGa7ApG8lXh51Ym1vviiy/0HpFnYaAhN+aHgCuiEfdOCrblSFW7BWnPT670PC+l+PkbH6eGg3YdX+ucXfOU2vKRsz4RcX0r/mAtOJ5p/H8jkt+dhEmv2W3zsxE1KAQBJT60SzHeD3mWzOPlvxtFzxMA/wv9s7UgBF+m74qDxvfLuAkJCi7aL8Gp6/ULw4QFazDzgRBkPDsU4e390Xn4FGToZsigYbOQnjoZEbsSMSaqGwLbD0T8R1lV/n4WXZuhovfMVcfzkCO3Tf2Nn+4SgkIQqe+Wq4o/tzJTMJEnYqChGlHlifVKCopG7MPyd2kysqsr0OTlFn24XBHier+WGuQfEICA81upj70yBQXJ+xOJhDl6qHuxbTKiK3qRB3NUzUpMp/JPLHqebOSU6ttkQfZ6fVe0ClI1Cenb1btcitPX2yoMsa8bofZMLjamTkTosnhE3j4DRfVIfggZIrV5OcjflY6Zw/IxZWQU4hdVrc4tqFOM8f/0qv+sFeQjV2799PfReE9UbVVObunald3Zxk+3E9z055aorjHQkEkUIGu9/L0fgxD7OUW25BT9414JBavSkGTcxoaVrPyvPn6+tfeRE9wlwviAS0baqsp9mGcb70cmwhDZ01ED0QUhPaOM58k0nqd491UcTEfap8btWN2c0i4EEcbLtyxN1+GjOJev1zcAoUMmYPKLEcCKzFKdxf3aRSD21aIh7qkbSlybi0LCohBhPM705NTiwcMIEy69u0ZIkbqeoFAdPqRZTha7np+GNSWGfmcuk59G4/0PLf9npjZ+bonMiIGG3IzxYfT3eMz4KLVozpI8mb8kDXOfH4rYt40PhrGxiFaBxg8BrYybtYlIXGA7LxUzHknAdDlcSjISnp6EuUuzYMmzIGvRJAx9cAos/ScirgYn6wvuUlSrlDjb+OCWPiKLMo1XWDP8BgxFfH9g1mOjMGm+zNci88YY2/ZMJL+dXCJUTEfCIzOQrN7jbGTMHodRj6Qi6IEEjKpo3cL+IzHlgSCkvjgGCfPl/ZTnSMOkh+Mwy4gBEx+WkVAGvyjEvhINLB6HW4dPQfIKOVfmfUlG6oo8p643b0Wq/jrbsVQkzskwrsEITa2ykWb8nGRu18eM72vmR4nGh30QonuUH8oq1CMWU14xIs0btyI8ehwS3piC+Icj0XnQRGzUpzgk76WaK6fo53HS0wlIM64ntr8tfAQh5umJiLBMwZgnZiBDXbtc9zjEPZvp4P2vm59bIlPSnYOJqlXl56HJtS55JdrBHC4h1uhnkqzbzujTDDJPSLSMorGd0yXaOn7uGmvSM8b9kqOcBk23piQXn0cmaMB4a4r9XDc1MMrJmr/GOn2Y3XwnXUqPbrEpc1RLSWWN1BEH0q2T7Z9PbyHG+1E0Esg28ifOOnnaSGuo3fsXMmy6dc0xdVKR8p7nmPG6RoQWnx+mS4x18rISo4LUnCvFn0e+l+NT9XkVXG9u6vgSX2v/fdtonVlyLhnjsWOmrTGeVbgwysnh6KVc68bkidbYQVHWqEEx1rhpS6w5JUZDlZKTZB15/lpks7+eC7Z96WBOo6cSrRvt3n+nf25dwHloyJP5yP+MXxKiaiV9aA4fPowhQ4boEhfJjK7SgXJTNtApFMHSn8RRdxJ1nnSNLD6LcHlkptcCF86vFgXGX+Io4zXUBJnV1zbix8/+eS2YOzwYoz6diHTrBEQY74Sa/dfXOKeJPsUV55+novdTP4/Bz/heljqzzOstUvQ9Ew6eR95bW+9YB19brbbOwsDLxiBgbg6SRpTRNCTXY5GRXiEICSrvei68J85cd3X83Moop5UrV+Luu+/WJUSeg4GGakSVAw3VkJKBhlyR+UYkwp8Fpq9PR1wPXUhEboF9aKhGyDwql156qd4jMhsj+D0ciaGPJWDKG1PUFj+yG6KfzUDEK1MQyzBD5HYYaKhGdO3aVW3kfgLaRSFqkINmH7IThOjHxiG8IAOpyTMQP3UWMgujkJC6DWkvRJj2vZMmp5kzZ+o9Is/CJieqETk5RYOpg4MdT6pGRLVPAo3MD8X1nMgTsYaGasTOnTuxdu1avUdERFSzGGiIiIjI9BhoiIiIyPQYaIiIiMj0GGiIiLxIeHi4vkfkWRhoiIi8RNu2bRloyGNx2DbViFOnTqnbRo0aqVsiqnv79u2Dn58fmjdvrkuIPAdraKhGSJBhmCFyL7/99hu++uorvUfkWRhoqEacOXMGS5YswcmTJ3UJEdW1bdu2ISAgQO8ReRYGGqoRDRo0ULMFL1y4UJcQUV368ccf1R8Y1113nS4h8iwMNFRj7r//fhw9ehRffPGFLiGiuiCr369fvx5hYWG46KKLdCmRZ2GnYKpRJ06cwJdffomCggJ07NgRffv2RbNmzZCfn6/PcMzf37/cc+S4qI5zeC2l8VpK27JlC6688kq3uBZR0fPUq1dP9WP77rvvsGHDBjW6KTIyUh8l8jwMNFQrvv/+e/z+++/o2bMn+vXrhyNHjuC9997TR4t75JFHEBgYiHXr1qmF9Epq2LAhnnrqKXVfwlJWVpa6b09W+r777rvV/WnTpjn8h3/w4MHqL1Z3u5Z3330XBw4cwLFjx3DppZfqM/i+1OW1yKg9CQUSyHv06IHMzEz4+vrqoxe40/vypz/9SY1m2rVrFxo3bowWLVroI0SeiYGGyI3IsFr5ENu7dy8eeugh3HjjjfoI1bVff/0VK1asQEZGhhr6fPXVV+Oqq67C5Zdfrs8gorrEQEPkBuTXUP5i/+STT9C7d288+uijnCvEja1ZswY///yz6pvSoUMHFW4iIiJUcyoR1Q0GGqI6lpeXh7feegvZ2dmIjY3lKBQTkb5htmAjzUf9+/dXW/fu3fUZRFRbGGiI6pB8GE6fPl39lS99KzhHiHnt2LED6enpamvVqpUKNqy1Iao9DDREdUA6mc6aNUvNDXLvvffijjvugI+Pjz5KZiaTStqCjUxkx1obotrBQENUy2TCwX/84x/q/vjx41XtDHkmWWrAFm5kYchrr70WAwcO1EeJqDox0BDVIhnuO3XqVNXx9/HHH1fDeMnzyRB8CTXffvut+p7LsOsbbrhBHyWi6sBAQ1QL5Nds7ty5aimIUaNG4bbbbtNHyJsUFhbi66+/VgtEyrwwEmyuueYafZSIqoKBhqiGHT9+HJMnT1YTnMXHxyM0NFQfIW8lNTYSbGSTJkcJNjL0m4gqj4GGqAbl5ubihRdeQJMmTfDMM8+gZcuW+ggR1IzQUlsjwUY6DUuw6dOnjz5KRK5goCGqIfv378ff/vY3tG/fXtXMyArkRI5I7Z0Em8WLF6vmSBn5JuswEZHzGGiIasDu3bvx8ssvq3V5nn76adSvX18fISqbTNA3b9481XFYQo10Hici5zDQEFUzaWaS5qVevXph3LhxnF+GXHL06FEVar755hu1SOXw4cMZiImcwEBDVI1Onz6NhIQENG3aVN0yzFBlLV++XK3tJat3S6jhxHxE5WOgIapG//rXv7B161a8/vrruOiii3QpUeUcOnRI1dYsXbpULY0hSykQkWP19C0RVZH0f5BNmpsYZqg6yKi4sWPH4p577sGbb76JjIwMfYSISmKgIaoG0tQkazPJCJWOHTvqUqLqIU1ODDVE5WOgIaoG0tdBOm4OGzZMlxBVL4YaovIx0BBVUUFBAVJTU3HXXXdxbSaqUfahZtWqVbqUiAQDDVEVyV/L9erVw/XXX69LiGqOhJohQ4Zg/vz5OHPmjC4lIgYaoir68ccfERkZCX9/f11CVLPuvPNONV9NcnKyLiEiBhqiKjh79iw2bNiAfv366RKimicrdUuokVqazZs361Ii78ZAQ1QF27dvh0zlxBW0qbYNGjQIYWFhrKUh0ur/TVbPIyKn/d///R/27NmDLVu2qNlcZamDxo0bq/1ffvmFM7pSrWnVqhU++ugjXHzxxZwugLweZwomctEf//hHHDlyRO8V16FDB0yePFnvEdW8adOmqc7B48eP1yVE3olNTkQu6tOnj75XnPRreOCBB/QeUe249tprsXr1auzbt0+XEHknBhoiF8mQ2TZt2ui9C9q2batW2CaqTeHh4bjssstUqCHyZgw0RC6Svgo9evTQe0WkduaOO+7Qe0S1y1ZLQ+TNGGiIKqFkLQ1rZ6guSaCRJidZ6Z3IWzHQEFWCfS2NrKzN2hmqS/IzKFMHyEg7Im/FUU7kMplILicnR82D8Z///EeXFte/f3/07NkThw4dKnOejPvuuw9NmzbFzz//jDVr1ujS4mREkUhKSsLhw4fVfXtBQUG4/fbb1f3avpbjx49j5cqVaobgiIiIOr2WkuriWmRtIRm+3q1bN7VPtWvBggXYsWMHxo0bp0uIvAsDDTlNqrQXLlyIwsJCVUMhs+OeOnVKHy3tkksuUR+WZZ0jH5Sy7d27V5eUJo8hquOcmrgWmZNGamr69u2r9uvyWkqq7Wv56quv1Ky1V155JQYMGKDKqPbIHxrvvvsuZsyYoUuIvAsDDTlF1o1JTExUE3kNGzZMlxIVJ+Fo0aJFaNCgAe69915dSrXhxIkTGD16NP71r3+dD5lE3oR9aMgp3377LYKDgxlmqFwtW7bE/fffj/3796ufGao90tzXrl07/Pbbb7qEyLsw0FCFDhw4oPpp3HXXXbqEqHwy4uv333/Xe1RbQkJCsHHjRr1H5F0YaKhCrVu3xpgxY/QeUcWuv/569eFa1hIRVDOkhmbnzp16j8i7MNAQUY0YPHgwmjdvrveoNsgEj7JYKpE3YqChCsnQ4PXr1+s9IufIgomyUe1hoCFvxkBDRDVi3rx52L59u96j2iCBRjDUkDdioCEi8hAMNOTNGGiIiDyEzFpdv359NYs1kbdhoCEi8iCNGjUqdwZvIk/FQENE5EEk0Jw+fVrvEXkPBhqqEIfeEpkHa2jIWzHQUIVuuukmtSozkStuvPFGXHTRRXqPagsDDXkrBhoiqhFt27ZVG9Wuhg0bMtCQV2KgoQpxYr0adjALaUvTkLm7QBd4hq1bt6qNahf70JC3YqChWlIAy9pkzHpjCqbobdb8DGQd1IdNz3h9q9OMYJKFPF3itK3JGBg1EBOXufyVxtNakGmEobRN5XztwTRMio7ErW9mGldZe3766SdYrVa9R7WlQYMGnKGZvBIDDdW4gk2zMOYyfwSHDcWYZ+MRr7cxMZHo9m6GPqs25CFjthGmFmTr/eqUh7TXBxrBJBlZuqRWGGFlohGGBn5azrNaspCyKAOpGS6Era2pRuichYxKZCyqW9LkxBoa8kYMNFSzts9F7IAxmHU8GhNTNyI336r+aldbfi5yxobpE2tDLrIXGGFqrUXve4kecUjLzUXunJEI0kUVsqQboTMV2ZyfzXRYQ0PeioGGalAB0t4fj7mWCEycn4QJQ0IR4KcPCb8ABLXSBYUFyMvLu9AkcjzP2LdvIDGOb89UfU3S1majoFAX2zO+JnutNPsY24osFPtyxYLs+caNEaTkudTzlXicgrzsoiacpZnV+GFuXPumjPKv/bwL51Zfn5qCove15PMW5CFrhbzWDGRZij+XZVdRjU++fp+Kfy/InTHQkLdioKGaU5CO1NcswN3jMLK/fZJxYPUUBAZGYcaPWZj79EAENw1E4CPJRgQxbE9FfFQIAkPCVV+TgWGd4R86Bsnn1z3MQ+rTneFjfE3nMGn2MbaIbsb5AzFphXwQW5D8cDB8fCKRIKe/dqvxXMbjG9uU1VIgso3HGIiQwM4Il6+PCkfnpp0x5tOqNU8VrJ2BoZf5IzA08sK1tzeu68fSbTl5yyYXOze8vT8in0g1rqyKdicjVl7vmxea97I/HYPO/oHoFiGvNRLdgv0R/LDxfhvfh84+PggemWyclYwxPYvep/PfC3J7bHIib8VAQxW68sor4edXQSBxZFMm0uQ2LAQhqqAimZg8bCiSfEdiRtoSLHk2CgFG2ZQRt2KKXzzSD+imqtx0TGw1C0Mfm3X+wz54yExszMlF/pmic/J3pWB8UBoSXkw0zglC9NQs5K6fiRg5+bkUtXifbOP7qi9H5pujcOubfojPyNVNYrlIfyUIs4aPw6zKDtQ5aASxIeOQ3GoCUrLzi67rQDom99uIhOtGlXrcjbsDEbvAeA2qOS4HKc9FIOPtWzFudjX3+clLxZThsxDwwhLk6vdLmv/Sn49EQO84rDHel5Tn5MQYzFxf9D7lvh/jfHMV1SnW0JC3YqChCl122WVqc1lBgRFHXBP5egqSXo9FzIAoRPU1PkIXJyJ+RRgmvzoeEa30SQERiH16JLAoFRm7VQHCBkUhNCgAfr7qDPi1i8bQ2407iy2qZsEvIAABAf7qGPwDjfuyr88vSEPi0xkIe30ixvcPKDrHeMyIP8ZjJFKRuqpydRPZC2ZghsW49ncnIrpTUSD0axWB8VONfeNxEz4q3iE6ckQsoq8wrkl2/IwQ9uoMTO4NpE5Ldvl9LNfxPOQYN4HtQxCg3y9p/gvpEmS8H37qfQm0vVX6fQoo1lbonFGjRlXu54aqhIGGvBUDDVVoz549aqsVvvqTVMvaIHU8gcjdIn09LmwbDxY/TynIg0X6n6zNVn0+8hvo8oromqTAY9nFniMtKwcOnsVJechalWrcRiHsiqKS87qEI9LIapb12RU044QaQc24MV5PTnWONmoXhVEPBCHtkYG49dlZ5Q/5JtOR1bYLC8vtqEXkkRhoqEIrVqzA4cOH9Z4LgkKKmniO5Rd1Sq2EguNSN7ERye9OwqTX7Lb52YgadKGGwdYnJDh0FBKevhWhgf4Y+GLRsQrpmqSN82cUf47XkpE9KAohTYpOc00B8tQcO4HwL1W5EYyQ6/TdcvnBv6nc5iCvWkcbBSHmnXSkvB6B7A/HYGCo8b5FxWPupurt+LtkyRJs2bJF7xER1SwGGqo5nUIQLh0vPkxDeiU/K4OCooz/RyJhzhIs+abkNhnR8vhbZ2GcrU+IdRvS0zYix2pF+gvqISrWKgjqWZ5PdPAcSzD5dmd6j+QjXyo6jFOL8ksAgjrJbQ5yS1WAZBsBTN8tVx5ypW0IoQhppwqqT5MQRD+TiI05+cjJmImh+VMwakA8UquxssZiYTdiIqo9DDRUgyIQ/WyE8ck2CQlvZFSqlia4S4SREZKRtqqcT9pd2ZDGnaHR0onYTskmJ18/HTZKaBeCCCOIJC9Od37iuZIKspG12LgdFIpgVeCHbmFSP5VkXHuJV7423SgFwiJCy+9oe3wN0mSY+ehwI9LUFD8E9Y/F5BfjjO9TKrJ0R2U/X2dCHBGR+2CgoRoV9lQiEh8IQsaLkegWPQ4Js41wovqopGLu2wkY93xquf1I/AYMRXx/YNZjozBpfiaybfOibM9E8tt6Vt7AQMj0fEnJqfp4NjJmxyPhHTloJygE3eRzOjkRsxYV9ZPJ2GpEGL8oDJXgNTsOo15LRuZ229wr2cicPwPJG4q+vDgLMhfJ/C1yLRmY9WwCphil0QPCzoeUoNvjMbG/BVMeG4cZK6RfTx4sa+di3Nh4ZAaNRMKw4pMKJhuhYtJHaeoxLZtSMWnkKEyROXweiy4e1BzJSDy/pIT9NmuFg4i2NQ1zF9m9l5ZMJH5kRKygaIR2KToluIvUWSUj0fb9Ms5nfQsRuTUrUQU+++wz67p16/ReJZzJsS6ZFmeN7gJZ2MduC7FGPJdizZVzMiaqspi5OepLijmQbp08LKTE18IaMizRuk2dkG9NfzXKagQJfSzEGv1MojVlWoxxf6I1XZ1TJCd1vDUqyHZekDU22fZ8udb012OsIecfQ29dYqyJW/QpxayxTjz/OLIFWaOeStHXYyc7xTp+SPFrDxow3pqYla9PMKjXHmWd/mVS8XODoqzjvyz1iMXtSrTG2D12yU29n7ZzXtHvxPqZpb8Xxuucnml3TflrrNPt3/Muk41X7Jr//e9/1t9++03vUW355JNPrH/729/0HpH38JH/Gf9gEZVJVtvu2rUrevbsqUsqryDvwmzAMpTapcHAMnuwbfCGX0DxWYeF7bijYyUU5BUYpzk4SWYsPn7+CssfriznHsxGdl4gQtoFIaCczsMXXncFjyn063D5/XGRU9+LAuNaUPH76UhiYiKuuuoqDt2uZfPmzUNWVhZeeuklXULkHRhoqEKnTp1St40aNVK3RM5goKkbDDTkrdiHhiokQYZhhlzFifWIqDYx0FCFMjIysH79er1HRETkfhhoqEJ79+7V94icJ01OnFiPiGoLAw0RERGZHgMNERERmR4DDREREZkeAw0RERGZHgMNERERmR4DDVVo6NCh1TJLMHmX9u3b63tERDWPgYaIasT111/PifWIqNYw0FCFfvzxR7URueLIkSP6HhFRzWOgoQo1bNgQ27dv13tEFTt+/DjmzJkjq/nrEiKimsVAQxWSBQblA2rNmjW6hKh8X3/9Ndq0aQMfHx9dQkRUsxhoyCldunTB6tWrsWvXLl1C5FhqaioOHjyIa6+9VpcQEdU8Bhpyyk033YRu3brhyy+/xHfffadLiS7Iy8vDf//7XxV6b7zxRrRt21YfISKqeT5WNnKTC9LT09UHV3R0tNqfPXu2ui2pb9++aqj3oUOHVAhy5J577kHTpk1VU9Yvv/yiS4sUFBSofjv//Oc/1X5ycrLDTqatWrXC7bffru7X1LXYjB49Wt16w7Vs2LABgYGBGDt2LFq2bOnUtcydOxfNmzfHDTfcgCZNmqgyqn3z5s1DVlYWXnrpJV1C5B0YaKhKduzYoe+V1rFjR/VhKf1vHGnRooX64LZ/jFOnTmHx4sX4/vvvcemll+K5555Ds2bNKnweUd3XUpKzzyPMfC1Hjx7FqlWr1Obn54err74anTt3xsUXX6zPKM72POQeGGjIWzHQkNuQjqSffPIJfH198dBDD+Gaa67RR6gunDlzRjUvLl26VIWi/v37q+9JeHi4PoPcEQMNeSsGGqpz8o/vf/7zH+zduxe33HIL7rvvPlUzQO5j+fLlqtZs7dq16NevHwYPHoxevXrpo+ROGGjIWzHQUJ2RvjgyV4lM2nf55ZdjzJgxbL5wcz///DO+/fZbdRsREaGCTffu3fVRcgcMNOStGGio1p07d04N7f3000/VpH3333+/6khK5mEfbK677joVbCSUUt1joCFvxUBDtWrz5s3497//rZqXbr75ZtW85O/vr4+S2dgHmwEDBqhgI525qe4w0JC3YqChWnH69Gk1R4mMYJK/5B999FG0a9dOHyWzsw82I0aMwN13362PUG1joCFvxUBDNW7Lli3417/+pYYDS/OS1MyQZ5KRav/3f/+H3r17Y9y4cWjcuLE+QrWFgYa8FWcKphpz9uxZJCYmIiEhAQEBAZg6dSrDjIeT7++ECRPU0gdPPvmkmsuGiKg2MNBQjTh8+DCef/551fl31KhRmDhxIlq3bq2Pkifr0aMH3njjjfO30tRIRFTTGGio2m3cuBHx8fE4duwYXnvtNdxxxx1cddkL/fnPf8Yf//hHpKSk4Nlnn9WlREQ1g4GGqtX8+fPx8ssvIyQkBJMnT0aHDh30EfJGgwYNUjU0srSC9J8iIqopDDRULaRv+bvvvouPP/5YLa4o/WYuuugifZS8mQzLf+edd9SkiePHj9elRETVi4GGqkzCzHvvvYcffvgBTz/9NIYNG8YmJipl0qRJ6lb61RARVTcGGqoSW5hJT09XtTKyMjNRWV599VW10KUM7SYiqk4MNFQlMorpp59+wiuvvMI1fahCjRo1wgsvvKDW75Ih/URE1YWBhipt165d6kNJ5huRTsBEzrj44ovxzDPPYNGiRWoSOCKi6uBRgebMmTP6HtU0ea9lFNONN96IsLAwXUrkHFn+4vHHH8dnn32GX3/9VZcSEVWe6Zc+2L17N3755Rc1M2lBQQEsFos+Upz8RSijblauXKn+MiypTZs2GDt2rLovq0DLXColXXXVVRgyZIi6Lx0bT548qe7bkw6x3bp1w/79+9WoH0c84VoOHTqkHlc+mPr37+/x70tQUBDq1aunJge84oor1EZVJ++/LInxl7/8RZdQVXHpA/JWpg403333HTZt2qQ+ZPr06aOGhZZHRt6U93JtI3Oq45yK3lYzX4ssaSDr9MjqysOHD1dldXUtjtTUtRw4cAAbNmxAdna2ml9H5lihqpFV16VPzYMPPogbbrhBl1JVMNCQtzJ1k5O0xctf20OHDkWnTp3UB1B5m3BUbttsHB2zbTaOjtm2io7LVtE5No6O2TYbR8dsW0XHZavoHBvbvnQClpqP2267rcxzHG0VHZetonNsHB2zbTaOjtm2io7LVvIcqSGKiopCbGwsunbtqo5T1VxyySVqJumFCxfi1KlTupSIyHWmDjShoaFo2bKl3qPaIiNU+vXr59UrKVdUG0jOu/POO+Hn54cFCxboEiIi15ky0Kxdu1ZV+1PtkyYYaXa58sordYn3ysnJ4YdwNZFQI7U00ieOiKgyTBlotm7dqvpxUO2QidBs2/Lly1XTgPRbspV5q+DgYNUZnU0lVde3b181KeM333yjS4iIXGPKTsFz5sxBdHQ0WrVqpUvKt2zZMmzZsgW+vr665AL5h9Q24uWrr77SpcXJ2kS2ES/SCdkR6dQoZPRNfn6+um9PAoBt9I1cvyPuei2yarLtvSssLFRhUiZIk2YCKf/DH/7gle+LXMvOnTvRrFkz1Z9LRkJddtllql8IuS4zMxPvv/8+3nzzTfWzRZXDTsHkrUwZaGQ4blxcnPoAc0SqreUX2jYKRSaAO336tBp264hMCicfUCdOnNAlxcmHlTxXec1ctonlquMcd7uWt99+G5s3b9alFzRo0AAjR45UH/Blqe5rccfvkdxK0MvLy1M1NtJ8Iu8Nue6JJ55QHf2vu+46XUKuYqAhb+XjaYFGhtYmJSWpESkxMTG6lKpC+szMmDFDzT1jT97j1157DU2bNtUlZE9CjqNaQSrb7NmzkZubqxY5pcphoCFvZepRTo7ICByGmerVo0cPNe+KvYYNG6rmGYYZx7Zt24bFixfrPXJW7969sWrVqjInyCQiKospA01Zs7SuWbMG+/btY5ipAbfffnuxIfIBAQG4/vrr9R6V1LlzZ/Wh/Ntvv+kScoYsoyF9mSTUEBG5wpSBRj5cHTU3Sd+ZJk2a6D2qTva1NNIXibUzFZNO69LXhlwjoYaBhohcZco+NGX5/PPP1UgTWVuoIuvXr1cjn2TIbdu2bXVpcbYaiB9++EHdliQfWLYRL2WNrJFRMRK+ZPSNrDXlSEXPI9zhWiQwfvnll/D398e0adPUqBRHvO19sSl5zu+//646DEsQbN++vVr3ylEQp+Lk50r6Zr311ltqaDy5hn1oyFuZsoZGhnU6WnRw8ODBCA8P13uOSR+bmTNn4ueff1Yjn86dO6eGITvabBwdk82eo+Oy2XN0XDYbR8dsm42jY7LZc3RcNnuOjstm4+iYfLjI+yXDkqV2xtE5stlzdFw2e46Oy2bj6Jhts3F0TDZ7jo7LZs/RcdlsHB2zbTa2fZlNWMKU/M0gk/AdOXJEn0HlkeY6WWpi+/btuoSIqGIeN8qpPOnp6WqF5i5duuDGG2/UpeQKWYzy7rvvxogRI3QJuUqaU2RYt3SAJcdk9W15f/hz5jrW0JC38qhRTlJVLYHFEZnRVuZSkQUVGWaqRkY4UeXJpHErVqxQc9aQY7LYbHlzARERleRRgUaWRCiLVP/LqtzSx4aoLvXs2VNNBCgzWJNjDDRE5CqPCjQVkSnqidzBtddei8OHD+s9KkmWkJA+R9L3iIjIGV4RaKQZSqr4qepCQ0P1PaoKmWtFOg7zA9sx6ecmTZsyQSERkTNMGWhkNJMrZMiurOdE5E5kygAZaUeOyZpZDDRE5CxTBppevXq5NMJJzuWEe+RupNmJP5dlk2YnBhoicpYpA40sXudoHhoiM5EZce2Xk6DiZE029jMiImeZMtDIxHiODBs2TE1kRmQG0umVk+2VLTAwEHl5eXqPiKh8XtEpmMgdffjhhygsLNR7VFKLFi2Qn5+vNiKiinhUoJG1nBxNrNeoUSM1XT8RmYcEGsFaGiJyhkcFmjNnzuh7xUknYtmIyDykyUmwHw0ROcMrmpykE7FsRGQe9erVQ/PmzVlDQ0RO8YpAs2XLFk6sR2RC0uzEGhoicoYpA80jjzyi7xGRJ+NIJyJylikDjVRDuzKxHpE7GjVqlGpWobJJoGENDRE5w5T/mq5du9bhxHqy9guRWciHta3jKznGGhoicpYpA83ixYv1veLuvPNOTqxHprFu3TocOnRI75Ej/v7+KCgo0HtERGVjfTdRHfnhhx/0PSqLn58fAw0ROcWjAs2nn37qcGK9rl27IiIiQu9RVWRlZel7RDVPJsVkoCEiZ3hFDU1AQIDaiMhcWENDRM7yikDzyy+/qI2IzEVqaE6dOqX3iIjKZspA06BBA33POfIP4t69e/UeEZmF1NDIAp5nz57VJUREjvlYDfq+6Ukfmu7du5ca6bRy5Uo1mmTIkCG6pHb89NNPaNy4MY4cOaJLSrvmmmvU7fLly9VtSTJsVV7P/v371YzHjoSFhal5eeR1lrWeVUXPI5y5lr/97W+47bbbcOmll+rS4mrzWqrzfZGhwbXdLDl9+nSMGDECLVu21CVUUnZ2Nv7yl7/gv//9rxrxRBWbN2+e6uv20ksv6RIi78BRTjVAOibPnj1bzZcjQSo/P7/MzcbRMdnsOToumz1Hx2WzcXTMttk4Oiab+N///ofrr7/e4XHZ7Dk6LpuNo2O2zcbRMdnsOToumz1Hx2Wz+eKLL5CUlKQ+QGvLuHHjGGYqYJtb6vTp0+qWiKgspqyhkQ+fQYMGlZotODMzU7W512UNzSeffKIWwrzqqqsQHh6uS8kMkpOTVY0Pv3fu48CBA4iLi8OMGTPQunVrXUrlYQ0NeStT1tD89ttv+l5x0sRQlxPrSdOHTNM+fPhwfiCaUExMDEJDQ9VCpo5moq5uCxYsUEGbysYaGiJylkc1OUlflfL6q9S0VatWoW/fvmqFYDKnG264QfWlqY1J73bs2KHvUVkYaIjIWR4VaL755hvs2bNH710gTQi10dwkHTz79eun98isbrrpJoYNN8FAQ0TOYqfgauTj46PvkZm1adMGjz76qN6julS/fn21MdAQUUW8ItBIp+BFixbpvZpRG89B5I18fX3LHHZPRGRjykDTpUsXfY+oZixcuJAddt2ENDsx0BBRRUwZaO6+++5SQ7aJqtP27dv1vZoTHBys71F5WENDRM5gHxqiOjJ06FBOrOcE1tAQkTNMGWimTZvmcJ4QGZ3Cv3qJPAtraIjIGaYMNGWtvivr+8hGZAaylhP76VSMNTRE5AyPanJat26dWkeJiDwHa2iIyBkeFWg2b96s7xVXGxPr1dbkfVQ72HTpPqSGhvPQEFFF2CmYyAF22CUiMhevCDScWI+IiMizmTLQDBw4UN8jR/I2pSFtaSYsBbrAkxVYkLnUeL2b8nRB9ZgxYwY77BIRmYgpA014eLjnTaxXaEHGRzMQ//BADBw8FONenIJZ8ysXSrI+NR4jaiLSDuqCGpI1exQiI8YgebcuqIKC3ZlGCEtDlqvXfDANE6OM1/tpli6oHlarVd+rOf3799f3iIioqkwZaI4dO+ZwHhrT2p6KcdcFI3LkOCSrz+U8ZC2egTEx4Yibb1GnuJ88ZGemIWNFCrLsA83WVEx5YxYyXKwwyVs20QhhA5G8VRd4gb59+7KfDhFRNTFloHnvvff0veKGDRuGbt266T2zKEDa+7GYsSICE5flYlvGEiz5xtgytsF6Jh+zhgTo89xNAKKnZiM3NxsT7CsaLOmIfzYV2cf1PpXpxIkTaiMioqrzik7B7i0LGbMtwKBYjLy2RHjx9UNAgJ/eMaJPXh7y8kq3QZVVrhTkIWtFGX1qCguMr8szIlWRAotxLUvTkFGsP4pxzqYM1RyUubvEAxTIfsH5rxeWXUVNP/nqmsq5LqddeP60tdkoKNTFZSjYXtR0Vfw1uKfZs2cbb2FV3x8iIhIeFWgWLFjgcGK9+vXro02bNnqvZlT+OQIQEmHcLE5FRrnrIVqQ/EggAh9JNu7Zy8AUmSG5VHke0qcORWf/QHSLkD414Qj2j8S4Bdn6uGH1FAQGRmHih3MRHxUM/+BuiIwaiMjQQHR+Yi7SPorHrZf5IzA0UjUHhbcPwcC3M/UXG8/8pszMHFvUh8Z4rM4+PggemWzsJGNMz6JZm0tfl/MK1s7AULvnHxjWGf7tB2LSjw7CyvrEotcQEq7OldcQfMcUZLKmiIjIK3hUoCnrr90+ffqorSZV/jlCED06DkFGCBhlBI/42ZXoGOvQRmS3jkXKgXzVwTV/Vwom9M/AjDvGYVaxfiqZmPVpNqLeyUT+GSus+dswcxiQ/fYoJCwOQdyCXOQbX289sAQTeluQ9kSSEaEc6B2HNbm5SHlOdmIwc30uco393PdjjNdWCQdTET9kHJJbTUBKtn4NB9Ixud9GJFw3qsRrMOwCQl9NL3oNZ3Kx5v2RRsKNR/SracVqkJx19dVX63tERGQGXtHkJJ2IZatJVXmOgNunI2vZZIxstRFTHh6Ibq2D0W3kJCRvqEqzSSRGPRCN0FZFTVZ+7aIx8d3JCEMqZiy4UMsiIkfEIvqKIPj5Gjt+Ibj17hhVfusjcUZ5ANQjtIrCrao4C9mORjWp5rEABPoX7fob92XfvsnMFdkLZmCGJQyT352I6E76NbSKwPipxr7xGhI+KhGrokchtn9I0WvwDUDYH42vHw1YXktGWiXexn79+rHDLhGRiXhFoMnKysKPP/6o92pGVZ8j4NrxSFyfjdysFEwfG46CjxIwtGcoBr6WUakaBoeuCEOUcZO5JQfu3cMkD1mrUo3bKIRdUVRyXpdwRAYZQcV4r8pvyjJCTYS82nRklduU5xg77JJZnTt3DvXqsXskeR9T/tQ//PDD+p6n8UPAFdGIeycF23KkiciCtOcnV8s8L4qfP9Ra5AcvdAR2TwXIU81ugfAvVcETjJDr9N0K+DeRTtaZRX2XXcQOu2RWZ8+eVQt6EnkbUwYaaQrwuIn1SgqKRuzDUsOQ7LiJpzLycpEjt1eEVK5fSw3KPy51RsZVqX+HAxDUSW5zkFuqKikb2Z/quxXIsUgH6BiEuNuL1e699159j6j6FBYWqkEKRN7GlIFmw4YNDifW86xq1gJkrU8zbo0P5HZFJcqWnKJQUgkFq9KQZNzGhoUWFdQAP9/KpIcCZG+R1xqFUPVa/dAtTDrsJCFtVYlakrXp6jWERYRWEMqysWZxJtA7EqEqHLmf1q1bs58OVTtpcmKgIW9kygRQ1iKQskKy+SbWsyD17/GY8VGqmmdF5m6xbErD3OeHIvZtIGhsLKL1h3xAK+NmbSISF9jOS8WMRxIwXQ6XkoyEpydh7tIsWPIsyFo0CUMfnAJL/4mIq8HJ+oK7FNUqJc5OLpo7ZlGmw74ulrWpyNhkMV5HNjJmxyPhDaNwSBTCdEoJuj0eE/tbMOWxcZixQr/etXMxbmw8MoNGImFYWNGJNu8kYMzbycjcnoe87RmY9cQojFkUhJHPj0KJM92GTDHA9aKourGGhryVJ1VpmJSf8V8Wpoy8Vc2zInO3BIcOxKjXshD+TBLSp0WjKH4EIOqR6YgOysSUO/R5t89A9oDJmPGMOqG4QdMxfUQuEh/phuDAYHSLTsCa0PFI+WgCwio38MgpEkSmDwtB6otDi+aOeSLNYY1SzqJYRIYGG6+jMyIfltdhXNs7sQjRx9EkAhM+SsH4y9IwLkK/3rBRSPIfj8SlsxBjX2tliJtqvK6MBESHBCIwJNIINxbETEvFrGFu2t5kSEuTWimi6iV9aBhoyBv5WGtjFb5q9sYbbyAuLq5UP5pPP/0U3bt3L1VLY/sruCar96v8HDJr7/E85GzKBjqFIliGPDsKHuo8aYYpPotweWQm4QIXzq8WBXnIM0JYeU9ZkGdB9vZcBHYKQVA5JxZdv3DiNcjzGif7NQkoGsJdSdOnT8eIESNq9GemNp7DE7z88ssIDQ3F8OHDdQmVR1aKl+b3sWPH6hIi7+AVNTTygVHTHxpVfg41j0sQQvtHIDSonCCg53txJZz4VWE+mErzKz/MCD95vb1Dyw0zouj6nXwN8rzGuVUJM4IddsmsWEND3sorAo10IpatJtXGc1DtYYddMisGGvJWpgw0ro5mkhFRu3bt0ns1ozaeg2oPO+ySWbFTMHkrUwaa8ePHe/48NFSn2GGXzIrDtslbeUWTE5E7GjduHJu1qNqxhoa8lSkDTUpKisOJ9UJCzg/6JSLySuxDQ97KlIFG+jc40rdvXxNOrEfeSiaIZD+divn4+MCEs0vUGa7lRN7Ko5qcuEIymcnvv/+u71F55MNZmlHIOfJeMdCQN/KoQJOamoodO3bovQuuuuoqDBkyRO/VjNp4DiJvJM0nUutAzmEfGvJW7BRM5AA77LoPqW1goHEe+9CQt/KKQLNy5coyF7SsLllZWVi6dKneI6LqwiYn17DJibyVKQNNp06d9D33cfz4cWzbtk3vkZkdO3YMn3/+ud6jusZA4xp2CiZvZcpAM2zYMLebWK9fv37q9tdff1W3ZF7ffPNNrTRxyPIKVDFpPmGgcR5raMhbsQ9NNerZsyd+/PFHtveb2PLly7F//35ERETokpojC2Cyn07F2CnYNRJo2IeGvJEpA40sj+9oYr0bb7yxTv/qlZFOrVq1wsyZM9n8ZEJSM/Pzzz+jR48euOSSS3Qp1TU2ObmGTU7krXysJpyx6o033kBcXJzTzU7SKVgmMKutYdWyDpD8lX/fffep/e+//x5+fn7qvj1/f39ceeWVOHz4MLZs2aJLiwsNDUWzZs2wZs0anDlzRpcWd/XVV6vbn376Sd06UtE53nwt+fn5+N///qfWwJGaGXnu2vDuu+9i+PDhrKWpwIcffoi9e/fiL3/5iy6h8jz44IN48skn0adPH11C5B08qslJZhAuaxbh2hQVFXU+zIi8vDz14Vxys+fouGz2HB2XzcbRMdtm4+iYbPYcHZfNnqPjstk4OmbbbBwdk82eo+Oy2XN0XDYbR8dsm5AAFR0djUcffbTWwoxgM4pzWEPjGtbQkLfyqBqaTz/9FN27d+fyB2QK06dPx4gRI1hDU4F58+apaRFeeuklXULlkb5ZL774ovq3kMibsFMwEbm1Ro0a4dSpU3qPyiO1M/I3KmtoyBuZMtC4WgVdGxPrEVHNkP5nBQUFeo/KY/t3kYGGvJEpA80tt9zisJMtEXke6ePEQOMcBhryZqYMNDLCpWHDhnqPyJxskzFS+eSPFxmJRhVjoCFvZto+NNJJkMjMZMg4OwRXjDU0zrNNYcBAQ97ItIFm2bJlSElJ0XtFZEkEjnAis5APaX5QV0xqaKSza1nzDdEFrKEhb2baQDN48GDs3r0bX3zxhS4hMheZUfrEiRN6j8pi6y/H8FcxBhryZqYNNLLi9qBBg9TkaDKfx2effYY5c+aUObEeq/aJzMkWaNiPpmIMNOTNTBtoROfOnTF69GhVW9O8eXMcOXJEHylO1liSjYjMhzU0zrMFmgYNGqhbIm9i6kBj07VrV1Vb07ZtW+zatUuXXiB/2fGvOyJzkk7Bgr/DFWOnYPJmHhFobBo3buyw4+D69evx3Xff6T0iMhP5cJYaB9bQVOz06dPqvapXz6P+aSdyikf91Ldu3Rq5ubl6j4g8hazbdvLkSb1HZZH3qOQad0TewqMCTXh4uFrHZO3atbqEyH0NHTpU36OKMNA4h4GGvJnH1UvK7KuymB2RuwsODuboOycx0DiHgYa8mccFGlkWQTaxZ88eh52EidzB5s2bcejQIb1H5WGgcQ4DDXkzj+45duDAAXz//fdIS0vjLKPkdhYvXqzvUUUYaJzDQEPezKMDTe/evXH//ffjvvvu4zw05HZOnTrFochOYqBxDgMNeTOPDjQ2MqtwUFCQ3iNyDy1atOCHj5MYaJzDQEPezCsCjTQ9ZWRk6D2iuid9Z86dO6dCDVVMJtdjoKmYvEe2iQiJvI1XBBr50JDJ9WSFbiJ38NNPP6mZrck5TZs2xbFjx/QelUXeI3mviLyRVwSa+vXrIyQkBL/++itnG6U6J2uOHT9+HN26ddMlVJEmTZow0DhB3iN5r4i8kVcEGiFrPXXs2BEfffQR1q1bp0uJap8spDps2DB06NBBl1BF5ENaQiCVT94jBhryVj5WmVrXi3zzzTf4/fff0axZMwwfPlyte7J69Wp9tLS+ffuq27LOadiwIa688kocPnwY27Zt06XFyeKZ8nxr1qxR/SYcqeh5BK/FMXe/ln379qnJHg8ePIg+ffrgsssu00fIWVu2bMGECRMwZ86c86tvU3FS+/zggw9i0qRJ/Bkjr+Q1NTQ2gwcPxqhRo9QwbtsS+/KBU9Zm4+iYbPYcHZfNnqPjstk4OmbbbBwdk82eo+OyCVnvSj4YNmzYUOY5wtEx22bj6Jhs9mRf5gJ6/fXXyz3H0Wbj6Jhts3F0TDZ7jo7LZs/RcdlsHB2zbTb2ZTI0WxZYlKU5+EFTObZ+IWx2KpvtvWEfGvJWXldDQ8C8efNUDYIEjNqye/duPP3005g6dSratWunS4mcI00pDz/8MP75z3+q/nBUWnZ2Nv7yl7/ggw8+YLMTeSWvq6EhICsrC927d9d7tUNCTPv27ZGenq5LiJxn+4DOy8tTt1Sa7b1hmCFvxUDjhY4ePYo2bdrovdpzxRVXqP5LRJUhk2NaLBa9RyXJe8MJRMmbMdB4Iam+l5E2ta1Lly7YunWr3iNyjaxOzkBTNnlv5D0i8lYMNF5IamjqItBIh1jpuGjfeZbIWayhKR9raMjbMdB4oauvvrpOZk2WfjQy5Ja1NFQZ8mGdk5Oj96gkeW8YaMibMdB4oQEDBuCHH35Q6wnVNjY7UWWxhqZ8rKEhb8dA44V69eqlZk1+//331TT8tYmBhiqrR48e6lbWZaPi1q5dq26l4z2Rt2Kg8VLPPPMMzp49i4kTJ9bqyCMGGqosmQhTwjgDTWm//PILLr/8cq60TV6NgcZLyQrkzz//PDp37oxXX31Vrf5cGyTQSJCSScCIXCVLSzDQlCazfvfs2VPvEXknBhovVq9ePYwdOxY33XQTpkyZgrfeegu//fabPlozJEjJxF8yczCRq6TZSWoU66L/l7s6cOAAduzYUeuTZRK5GwYawogRI9SCdrLeUEJCgpo6vSZHk8hcGRytQpXRtm1bdOrUCRs3btQlJP1nZPSgNDkReTMGGlJkjpi4uDi89NJLagp1WdlY1nyqif41MhKDc9FQZfXu3ZuBxs7mzZvVavLyBwmRN2OgoWKk2loWkRw3bhz27t2LF154AS+++CI+//xz7Ny5U59VNRdffDGH31KldevWjYHGzqZNm1g7Q2RgoCGHwsPD8ec//xlvvvkm+vXrp1bnjo+Px9///nekpKRUqcmITU5UFRK68/PzsWXLFl3iveQ92L9/P7p27apLiLxX/b8Z9H2iUqQDr/z1FxUVpf4ylqULli5diuTkZDX8WtaFatq0qUsr/J4+fRpfffUVhgwZgoYNG+pSIufUr19fBeJt27apUU/ebP78+bBarbjvvvt0CZH3YqAhp8kK3WFhYRg4cCA6dOig+tp899136h9VV8JNo0aN8MUXX+Cqq65Cy5YtdSmR8wIDA/Gf//xH9R1p1aqVLvUuu3btUu/B0KFD1fQLRN7Ox0j3Vn2fyGWnTp1Sk3rZNqn+lg7GMt+M3ErzgHz4lPTwww9j9OjRuO6663QJkWtkpmv5+Xv88cd1iXf573//i6ysLPzjH//QJUTejTU0VCUyskKG0vbp00c1IUnzlDQJyOioRYsW4csvv8SqVatUh+IzZ86ocCPNTCtXrkTjxo05dwZVmvwsyRQDoaGhqvbQm0ineqmdufvuu1k7Q6SxhoZqzIkTJ9RoFNtmmx1Y1pE6efIk2rdvryb2a968uSoncpXU0khTp4zM8yZz587FunXrWDtDZIeBhmqNLeDIMFPpeyMdjIXU8Mhf2bJJx2P2qyFnScfgv/71r3juuedU/y5vILMk/+Uvf1EdgWWWbyIqwkBDdWLmzJk4evQobr75ZtUPQEKO3EqzlDQfSNOVDEWVLSQkRH8VUWlSS5Obm6s+5L2BTHi5Zs0a1s4QlcBAQ3VCqsylCUpmJLYnfW8k3MioKbkvfQVklWUJNtLJ2BZymjVrpr+CvJ2sY/TKK6+o2gpZxkPIz43MSO0JJLzIvFBi+fLlas01mfjy+uuvV2VEVISBhuqEDPWWf6hlor7ySDOVNCtIuLFtBw8eVLMN28KNBB12jPRu3377raqpkeU75GfijTfeUD87//73v/UZ5vTaa6+pn/lHHnlE1VzKyvgyMvCBBx7QZxCRDQMN1YnU1FQ1QZ988LjqyJEjxUKO1OZImYSakht5j3fffRc//fSTqr2TGhpZ2f3JJ59UfbPMSCagfOKJJ3D48GHVr8zf31/dlqzVJKIiDDRUJ5YsWaIm15s2bZouqZoDBw6oaeBlk4Ajt+fOnWPI8SJ79uzBM888g8LCQl0C3H777aatzZBRTNOnT1cTWIp69eph2LBhaiI9IiqNgYbqhPQFmDNnTo02Cdhqb2xBx7Z+lIQa6WjcqVOn85vMXkzmJbPmTp06VYUaezKCTtYjMyOZY0eWCLEnNTT33HOPmq2biIpjoKE6IYtdvv3222q209oifSok2Pz222+qI+n27dtVzY6QBTNtIcd2y/lxzEEmbZSmy3379umSC2TyPVlUVfpZmY00NzlalV5e0w033ICRI0fqEiISDDRUJ9avX49Jkybh448/1iV1QyZlk2Ajm4y6klv5a1/IB4d9LY4EHU8ZOeNpZNSPNDVJf5OSpInm3nvv1XvmIMFbhmXb5mqykZ9JPz8/NdKJiIpjoKE68euvv+Lll19Wc2q4m7Nnz54POfZBRzppyoeJLeDIjMe2+7LcgzuQD/W9e/eqRUIdkaUq5JjM21IW+dAU1XFOecer+1pk1NzatWuRmZmp1niy9T2RzsHvvfderV5LRedUdC0S9BcvXqz2ZbFXmbpAFuKU1cVlFFdtXou7/bwQlYWBhuqEOweaskj/DAk2tuYq2WwfmrKMgy3c2Lba/MdX1suSTqTSrCb9geQD3RFZEFSu6+eff1b9mEqSjqdS2yGSkpJK9UkR0gfptttuU/fL6tQdFRWFHj16qFltExMTdWlxNXktMmmjPLc0KUrncJmnRj4w6+Ja7Dn7vowfP17VHgYEBKjh2nIr1yA85Xtkz5VrkdAqwWfAgAH6CFERBhqqE2YMNI5IoLGFG1vQsf2jLh04beHGVptTmSYr6Ushf5XbPjhKkmUkpF+QnNO/f39Vi0QXyCrwvXr10nvmsHnzZvWzwn5cpUkNnAR4aQIeNGiQLiVioKE64imBxhFZvsEWcuw3KZewYQs3ciubdEiWZgVHZH4dmdJfahw6dOiAP/7xj7j00kv1USA5ORnSz0JmyJVVzIm8QUFBgZptXH7m77//fl1K3o6BhuqEJweaskjNjdTi2Gpy5NbWifWSSy45H3TkvoQc2WQCwSlTppxv2pJaHxndIrPFCql+l5qZiy66SO0TeQv53ZG+RtHR0er3hoiBhuqENwYaR+QvTZkrxxZwbLdCam2kyUGG7kpHZRvpT9GvXz88+OCDnD+HvNqnn36qfh/Y9ESCgYbqBANN+eSvTwk60tFSRlmVJJ0xJfCMHTsWffr00aVE3mX37t2qs7LZhuVTzSjqNk9Uy2QIprCfpp4ukKHGV111lRqu64gME5dRMOnp6bqEyPu0a9eOYYbOY6ChOmH7oJaOsuSYNDPt379f7xWFHFllXKa9f/rppxEWFoY//OEP+igRkXdjoKE6wUBTMek7IzVYV1xxhVpgURZelOUiHn30UdXMZKvlIvJWJ0+eVGteEQkGGqoTDDQVk4UV5R9rmRROVo22H65NREVkMj4iwUBDdcIWaGQ5ASIioqpioKE6YQs07BRMRETVgYGG6gRraKpO1vuRtW2IiIiBhuoI+9AQEVF1YqChOmEboWM/Ay65ZsmSJWodJyJvdvXVV+t75O0YaIhMStZxIvJmsobZ9ddfr/fI2zHQEFHdsmQiefYUTHljBuYuzUaBLqYKFFiQuTQNaZuKFi71RrJyD1fvIRsGGiJvY/sgXJoFxx+Feciq9g/KPKT9/VZERk9Bpn1i2Z2MUWHhGPrwZMxalIyJI+ciUx9yV3mb5L0rsa0w3svaTmIH0zAxaiAGfpqlC1xw/megjM0kISk/Px+TJ0/We+TtGGiIvI3tgzAqCgkLHH1wZSG5sh+URnDJkNqWBSUX1MxBVmoqMhalI+ugLjJkL5qBuZYwTM7Mwca0JdiYMwER+pi7yvpU3rsSW0Q3BIYMxKQVlUk12Uh9YwpmrajFEHH+Z6CMrVLfe6K6xUBD5LUsmPHIRKQd17vVIhfZC+IRv9ai921CEbc0F7m5iRjZThcZLJY04/8hCG5VtG8eMUjcVdTcobYDSzCxUxoS7jbeT5czjQXpz8YjNbsOGtteSb/wGuy3F9w9VhKVxkBDZFJt2rTR9yon5oUJiLFMQfzrGc73WzmerZsqMpB10NFXWZA937jJz0VeXp7aCvTciQXlPEm+PjdP2m0Kin9dMeUds1fBdRbIc9mCXGEBLJsyVFNL5m6n34niWkVh5GMxxsufhIwSfbUL8mzXkoaMTca16/LzdmdD1Ycct3vP1IELih7DeC0WB19vc9yCrBXyPJmwVPJllGK8N8Wu57j+HhmKvYfGGaW+L8b3quh6jPd1u4MLKuexiSrFSONEdWLYsGHWDRs26D2qNbsSrcZHrzVm7jbrmqkRViDCOjlTH1PSrRON48Zf73pfbLOmPBVlDZJyuy1kdKJ12xk5nmNNGh1U7Jhtm5hRdDxxmOxPNB7dsGpiqccq2ozjmZOtYcb9sKlr5Mxi0l+R54i1Jh3QBaVUdJ1CX8vo6dak10daQ4Pszw2yRk0r/bz20l+R82Ksibt0gbZtToxRHnbhvcxNsY7vYv/YRVvQAOM1HpMT1lgnOzhu/9j5WYnW8QNKvK8PJBmvwKC/j3h8ujWx5GsOirJOL/Y9LcH2tcW+xw5kTDQez3hNyzZeeI5hicbz6/dwbJJ147LJ1hj9Ooq+1/nWNdNirCG2a9Gbet256lGLlPnYzjtx4oT19ddf13vk7VhDQ+S1/BE2dgYm9s9A/POzULLXi73MN0fh1jc3Iur9NcjNt8J6Jh8bk+MQNHsUIp9PM/7KDkL01Czkrp8J44MSeC4FubnSxJSL8X3VQxTXezyyjGMpz8lODGauLzo3N3c8InrHIG6I8ZxzjL/s1claQRpS3rEg6LmRiC6jiari67QzewoSC27FrIz8omaWnBSM721B2hNJyNCnOKcAeWvnYsrUZAQ9kIBRvXUxghH9/kbk5OrHt+Yj58vxCF6agISP5N0OQ9wq4zWnTlBnxxjnFr0HsxAjzXIHUxE/YBSm7LoV0zO26WO52PZiJALUV2iL0pDdbyKMkKSeR54jzJKGcclOvAq7mrTzW6kmyExMHjYUSb4jMSNtCZY8G3Xh+efH4dYXsxD5SgqWGMeMYIO8BfGIfsJ4L4yfgW3qmvKRmzEZ4VkJiBxZ8uesnMcmcpWkGqK6wBqaqpk5c6b16NGjes8F52toiv4Wzl82QdWIxMzZpvZL1dDkL7FOkFqM0UlW+z+w5S/xJc9J7YFdbUWZf/mXqKHRyqrtyE2OLfrr3a6WIT9tgvFXfJB1Qlq+LinB6et0fC0i/QXH12Ov6JodbFfEWpOy9UllSrca8aX4+6NqKi58P2y2fRBtlJfzest8r/VzlFfbYftaR5ujazv/s2Fjew8nlHgPt1lnDjHKe0+2lqznsr2eolocQ5mP7Typodm+fbveI2/HGhoik5K/pquD37UJmPxMEJKfTUDybl1ob1MmUi1AVERYib+e/dAtLMq4TUa2o6+rgoDrohFr/PWeuNhWR1OA9MWzYOkdj6ED/HRZCdVxnUUrcjghChPmLVG1EkVbEqZHbMTQkMhSI50K8or6tmRul9qPfPjr8vIVIDsr1bgdisiwMl5vOZx7DsMfp9u9Br0NC9UH7fiW9YglyvOykLnIuB0UhpKPEtIzEkGwYE12iQ7jZT52xWRivY4dO+o98nYMNERezw9Rz85CHOYiblqJZhlRUKCafgKalP7gCWrfTd+rZq2iMfK5IGROTS1q/ilIR9psC6Iei0GYOsGBWr3OAHSLiELUANsWg7gPZmBy7wwkvJKom1WykfxwZ/gHBqPbAwmIvz0UgU0HIkEdq0geLNvlNhiBNdkG0z7c7jXo7YoqPOHxPOTIbVN/46eqhKAQROq71eXkyZPYvl29UUQMNERkMAJEwtQYWN6Ix8Qfc3Wh1ioIUr+RbVEfVcVYstfoe9XNCFnD4xFmmY60FUZWyUjDLIsRcgaE6OMO1Ml12gtG8GXGzSILpA4ie/Y4DJ0dgAlpubBuSceS9TmwWtNR1GOmIgEI6iS3G5FTcgS8OzO+B+o7lJNbetLG3UbA03er06effqrvkbdjoCEiJWjEZMwckolJz0xEii5TunRDVBCQuXhNiQ6deUhfLB9RcQi7oqgEvn6l/zKvLNU52ILpX6YiddEkWEbHYmgXfcwRV66zJhRsxMZlxu2gIBiXgewtRU1Gtw4oXuNRqv7I13jv9d0L/BASGm3czkVasamV3ZxfN4QPM27np2FNic7FmcuSjP+HITK09Kslqg4MNESkhSD21cmIWJFRYpRPBEZOHYmgRQkY82KymgslLy8baa+NQtxs4+irsYiyfWYHhaCbfF4lJ2LWIj33ytbK9vUJQdSwaFhmxyLuDWD8iOgKRsC4cJ1VloeNGUWvT22L5iJh+ChMsgQh7vGhqpYisLU0jiUhaUF20eih7RmY9XQCpquvt9MuVNUsJX84C8nq8VKRudt49cPGY7zxXs54+FbEzzbKtuep+XJSP0orEdiqYNeaC6/Bfqv00gdBiHl6IiIsUzDmiRnIkH5DeRZkfjQOcc9mlhgFRlTNdOdgolrHUU5V8/3331fLKKfi8q1rXpW5aUqMdlFzi5ScsyXEGvN6eokRRVZrTup4a9T584KsscnyPK6NcjrvQJI1Vh4naIJ1SRmDfYpz5jrLGeVU0fUYHI9yCrFGDIuzTl9m924cS7dOtJ9Dpku0dfzcFOv0u437Jd/bd+znbQmxTl6lD2WnWMcPCbnwGMYWNGC6daMcK2eUkxqlVtlRTrLZHrOMEVjlvYdi25fjrdHF5tgJskY9lWjdqObf0cp8bOdxHhqy5yP/M36oiGrd8OHD8dJLL6F79+66hNyezO56vKgJxK9JAPx81V2HCvIK4BdQxQaogjQkhAxE6tNrsOaZMrsDl+bCddY0mVFXrsQvwLiOoqIyyMy5QICj90xm0ZVZeH0DENCkqMj9yevRzWV+xnVXW1vkBdIpeMaMGXjmmWd0CXkzNjkRmdS5c+fUVqt8/YwPXOPDST6cKwgJVQ4zhoJlqZhlCcOoQS6EGeHCddY0CTLqOvR+2eSayzjLCGXq9ZgmzIgL34OaCDNEJTHQUJ2ROSRk+X+qnDfffBMnTpzQe54kG6mzk5E8Ox5DH5wCjJ2IWPa7IAfk3xDWzpANAw3VmaZNm+LYsWN6j8imADmLJiP++VTg7plIfb2izsBERAw0VIck0Bw9elTvEdmEInZeOrblbETKO7EIM1UzC9Um6UPz/fff6z3ydgw0VGck0Bw/XmolPCIip61cuVLfI2/HQEN1hjU0RERUXRhoqM6wDw0REVUXBhqqM82aNWMNTRXcc889+h4RETHQUJ0JDAzE4cOH9R65qmPHjqqWi4iIGGioDjHQVE12djbOnDmj94i8U6tWrfQ98nYMNFRnJNDITLdHjhzRJeSKb7/9lqPEyKvJxHqjR4/We+TtGGiozkigEaylqZyGDRtix44deo/I+5w6dUrfI2KgoTok/T/8/PyQk5OjS8gV8tfp1q1b9R6R91m4cCFWrVql98jbMdBQnQoJCcH27dv1Hrni5ptvxv79+/HLL7/oEiLvsXbtWlgsFrRp00aXkLdjoKE61alTJzabVJIMe+/Tpw9++ukn/P7777qUyPP9/PPPyMjIUD//MtqPSPhYDfo+Ua1bunQpPv74Y/z73//WJeSq1atX4+KLL0b79u3V2ja5ubkq7JRkG+Jd3mSGzp5T0YSIFZ3Da3GM1+KY7Xk2bdqE9evX48CBA7jiiisQFRWlyokEAw3VqS1btmDChAl4++231YcyVY0M5ZYamz179uiSIvXr18ef//xndf+LL75w2Pfm0ksvxV133aXuv/XWWygsLFT37Q0cOBC9e/dWI9NmzpypS4t7+OGHVYdvaQqTkVglecq1nD17VjV5BAUFYfDgwXxfauFa5s+fr/rdXX311WjRooUqI7JhoKE6JTUKo0ePxvjx43HVVVfpUiL3d/DgQTz22GMM40Rugn1oqE7JSB1pA2fHYCIiqgoGGqpzPXv2RGZmpt4jModDhw7Bx8eHTR9EboKBhupc//791SidrKwsXULk/jZv3qxG6TVo0ECXEFFdYqChOnfZZZehV69eWLNmjS4hcn8SaLp27ar3iKiuMdCQW5BRCww0ZCYyhFjCOBG5BwYacgsSaI4ePaqGbhK5O5k/SZqaODKPyH0w0JBbkImzpC+NzP5J5M5kUrcPPvgAcXFxak4UInIPDDTkNmRtIgk0rKUhdyWTx73xxhuIjIxUo/OIyH0w0JDbaNeuHW699Va1gi6Ruzlz5gz++c9/qqUlHnroIV1KRO6CgYbcyu23347Dhw8jLS1NlxDVvfz8fLzyyitqIdUXX3xRTQhJRO6FgYbcir+/v6qlSUlJUR8iRHVN1iF64YUXkJeXh9dee00tAkpE7oeBhtyOrKArs68uWLBAlxDVDekA/Pzzz6NevXoqzLRs2VIfISJ3w0BDbumee+5RgSY1NVWXENUeWbP366+/xjPPPKNW0/773/+OJk2a6KNE5I642ja5LflAmTVrFh5//HFcd911upSoZkk/mXfeeQd79uzBsGHDcMcdd6g1m4jIvTHQkFt777331CRm//rXvxAcHKxLiarfqVOn8PHHH2PRokW4/PLL8dhjj+Hiiy/WR4nI3THQkNv761//qvoySG0NUU1YuXKlmixPQs3999+PgQMH6iNEZBYMNGQK9957r5qnZsqUKbqEqOrWrVuHTz75BFu2bFHLb4wZMwbNmzfXR4nITBhoyBSkX4N00JTVjSdOnKhLiSpHAsyHH354foHJkSNHonv37vooEZkRAw2ZRk5ODp588kl07NgR//jHP1C/fn19hMg5mZmZ+OKLL7Bx40ZceumluO+++9CrVy99lIjMjIGGTOXYsWOqpqZhw4Z4+eWXERgYqI8QOXbu3Dn8+OOP+PLLL7Fz506EhobirrvuQlhYmD6DiDwBAw2Zjm1NnV27dqlJz6TGhqikkydPYvHixfjqq69w6NAhhIeHY+jQoaqJiYg8DwMNmda///1vrFixAk8//TRXPqbzLBaLWjrju+++U7Uz119/vVoj7JJLLtFnEJEnYqAhU5szZ46aN2Ts2LHqg4u8k/wzJv1jZDLGtWvXqpFKN998MwYPHoymTZvqs4jIkzHQkOnNmzcPn332GaKjozFq1Cg0aNBAHyFPd+LECbUy+zfffIN9+/ap5sfbbrsN1157LTuNE3kZBhryCD///DPmzp2Lxo0bq1AjM72S59q+fbuqmVu+fLlqVpI5ZKQ2Rjr8EpF3YqAhj5Gbm6tCTUZGhgo1Q4YM0Ufcx+nTp7F582Zs27Iee3bvwIEDB3H27BnjiPFrKL+Kas0gH9Sr54uWLVvgkkvaI+Synmr+HW9fHFFm8ZXRSt9++y1+//13tG7dGjfddJPa2KxERAw05HHkL/fExERERESoCdPqemj3kSNHsGL5t1i1cgXOnsnHFR0b4dKg02h/sS8ublF289ihI2exe/9pbNvXAJt2FOJUoa8aatz/2sFetcbQtm3bsGTJEhVmJNTIaKVBgwahd+/eXDSSiM5joCGPJLUgEmqkj4WEmj59+ugjtee3zZvwzaLPkHvIgmuvbIirLq+Hxv719FHXFZ61YtWms1i+4Sys9ZvgppvvQFj41fqoZykoKMCyZctUbUx2djZatmyJqKgoFWQCAgL0WUREFzDQkMeS+Wok1KSmpuKee+7BnXfeiUaNGumjNSd72++Y/9l/4Vf/OG7pcw6d2zbUR6qP5dAZfLW6HnYd8MHdQ0egx5W1H9hqgixFIJ18pdlQvn9SIyVNSlIrw9oYIioPAw15vB9++AFJSUnw8/PDHXfcgWuuuUYfqX5z//sOdu3YhOE31EPIJdUfZEran1uIz34A6vu1wf2jH1edos1GmuRkzhgJMrK8hTSnDRgwQNXIsDaGiJzFQENe4ejRo/j888+xcOFCFWgk2ISEhOijVbd1yyZ8+H/v4cbeDTCgd+3XJKzebMWX6QW46+7hCO93nS51XzIyac2aNSrEyPwxMsRaRipJiOnWrRtrY4jIZQw05FV+/fVXtThhVlaWmj22Opqhvl+yAN+lfY0/3dEQF7fw1aW1L//UOfx7wVmEdO2NO4c+pEvdy549e1QHX+kfIzUznTt3VrUx1113HS666CJ9FhGR6xhoyCvJjLJSY9OsWbMqNUN9kfRf7N3+C8beUXdBpqSPllpxut4leGjMU7qkbh0/flwFGGlWkg6+MvxcAszAgQPRoUMHfRYRUdUw0JDXOnDggKqtkVlmSzZDLV26FB988IEq/9Of/qTKSkr6eBaOH8rCQ4MrP3KppnyRbsXB/IsR+6d4XVK7zp49q5qUJMTIrZBh1rI8Rb9+/eDr6z4BkIg8AwMNeT3pwyG1NTLfiTRDST+OF154Qa3QLHPYjBkzRn0I20v9ci727czE6Jvdt6/H5+nA8XPtVWfh2iI1MBJiZM6YY8eOoVOnTrjhhhvU5u0TAxJRzWKgIdK+/PJLVWMjTp48qWoZhIy6ee21185/IK/MWIrl332Bp+6p+VFMVTVn8Tm06dAPt9x2ry6pfhJcvv/+e7Xt2LFDjUySJiUJhm3bttVnERHVLAYaIjuyJtSbb76pliiwkRE40nH1kUceUc1Ub099GS886I8GvuYYifNaYgHuGjYaod3DdEnVFRYWYvXq1ao25pdfflFNSFKLJU1KvXr14iglIqp1DDREdt544w2sWrVK710gtQ6PPvoovv3qM9zVvwCXdzDPit6yhMK0+Wfx8qR/6ZLK27Jli6qJkUUhpRare/fuKsTIMhO1MWkhEVFZGGiINPmgnjNnjmpCccTf3w+DI1pj1MD6usQ8lq4F9p0KwX33j9UlF8jrlg7Q9957L6Kjo3XpBdKXSCYnlPP27t2L4OBg3HjjjSrIyJIERETugIGGyM6zzz6LevXqqbWEZCFEmX5fmk9kX5qhBvZtjEfuaqXPNpdJ/8vHHx75a7F+LVLT8uGHH+Lw4cO44oor8Morr6jy/Px81bFXNpmzR1azlo691157rZo7hojI3TDQEJVDfj3kw/2zjz9Ao8LNGNC7AdoEmnPIcdaO01j6a2s89uQEtS9NazNnzkRubq7alxFdMTEx2Lhxo+ofI8Gub9++5/vFyD4RkbtioCGqgNTS/P3Fp/DKw+afyfaNj09h5MPPYv/+/XjvvffOhxl7PXv2VCFGliKQ9a+IiMyAgYaoAl+nfoZ6R1dgUB/z11D88nsh0tYH4tfNO9T6ViVJc5SM8iIiMhvWIRNVIH35j7ixl2cMQ/ZrcBYrVm9wGGaEjFySkUxERGbDQENUjt27d6N1gI9p5pypSFALX7Rp4YegoIvRvn17NG/eHC1atFDD0hs3bqwWjLRNLkhEZCZsciIqx4LPP0IrrEREd3ecd+YUslbsQ06Tlojs0RjO9nbZtuc00ja1wxi9zpP0o8nLy1Mjnfr06aPKiIjMhoGGqByv/f2veOLOQjT2d6Ey89QJZGYeQunutlqbixHVuTomoduLSV0TkTDkNuS8FYogXeqMF2cX4JVXp+k9IiLzY5MTUTnyTx53LcyI3J2Y+OAnGFjWtuiQPrHuNG/so2pliIg8BQMNURn27duHi1tUoanpyVGw/vZM6S3uEn1C3ekU7KsWkiQi8hQMNERlyMnJwSUta7BF9mwh8o6eQoHeLTh6BJkrdiJt7SHkFS30XZxxfnaWcXzFXmTlFurCyrkk8DQse7frPSIi82OgISrDoQN70app1YJDudavRmDfjzHx8yzEj3kf/n3fR7g0SQ3/AIG3fItU+044e37DmFveROc7pdkqEd2ufh/dEtZhjT7sqlbN6+HgAYveIyIyPwYaojIcO5qHZo2rMFy7oEDVwBTbTupj5+3HrOQdCHlwKHLXS5PUE9j4t67AjkzM+v7I+XOmPPUFZp0Mxcwvnihqtlo7CrPCfJGjz3BVs8b1ceyY47loiIjMiIGGqAynThWgUcMqBJp/JyGw77Ti2+y9+uAFkcOvQ9z1LRGgBj41QugNXRFj3Evec0IKULBiMyavBWL/NgixoXp01EXNETG0G24t2nOZn/G6ZPFNIiJPwUBDVIZz586hStPpDb8JS+bcW3wb0lIfLEd9favl7NwLCzogomt1DPW+4NzZc/oeEZH5MdAQlaFBg4Y446hzrrOCL0ZU/w7Ft0rMP2M5sNP4vx/8qzHPFBqvq0EDd5wskIiochhoiMrQuEkTnMiv+1qMoNYdjP/nIafMmfpcdzz/rPH6Gus9IiLzY6AhKkNgi2AcPl73vyIhXTsiCPuRtt7WSbjqDh89i8DAVnqPiMj8GGiIynBxUBD25Zbo0OKKnH1Ik3llSm7bXOyM2zsUE68HUhMWYlzSTmQdOIXsrN8wI2EZputTXGXJ9cXFwVLzQ0TkGRhoiMrQrl077Nx3Ru9VwrxvSy97IJvLSx80R+zUhzB9yAnMeO4TdLtmGjo/sR7Z/SMw8S59iot27jdeX/uOeo+IyPy4OCVROV6a8Ge8/IeGes8NnDyFvELAr1kjp1fXduTFD07ildcqW79DROR+WENDVI7OnTtj8w7b4gRu4KJGCKhimDly/CyaNG2u94iIPAMDDVE5eve5Bpnb3KiGphqs2WpFr97heo+IyDMw0BCVo1fvPtiY7Vkz6q7MKkS//gP0HhGRZ2CgIapA50s7Y4OrI5Pc1IG8Qvj4NkGLFi10CRGRZ2CgIarAgEExWJLpGb8q3xqvY8DAaL1HROQ5GGiIKtCxY0ec9WmKHZbTusScThacw6Ydheh39bW6hIjIczDQEDnh9pj78fnyKi1VWefmLwduvqWy63MTEbk3BhoiJ1x2WVf4Nw3Cmi1VWa2y7uzcdxrb99VD5HWDdAkRkWdhoCFy0ogHH8Pny07DjFNR/u/bcxj54J/0HhGR52GgIXJS06ZNcfOQ2zBrUd2vwO0KaWrq3jMcISGddQkRkedhoCFywTXX34wGTdrh69XmqKZZvfkcth/wx51D/6BLiIg8EwMNkYseiv0z1m1viFWb3TvU/L7nDBZkFOKxJ57XJUREnouBhqgS/hz/N6T+dBZrt7pnJ2EZYv7fb84aYeY5NGrUSJcSEXkuBhqiSmjQoAGefX4Svki34qdNutBNbN5ZqPr5/GncX3HxxRfrUiIiz+ZjNej7ROSis2fP4q3JL+PytgW49WpdWIeWrbciLfMsHn8qgcsbEJFXYaAhqgYf/+9dHMzZgodvqYeL/Oqm4nPO4nPIP9cKj477qy4hIvIeDDRE1eTnlcvwxeef4qa+DXF9z9oLNZlbCjF/2WlE3XQLbhx4my4lIvIuDDRE1UiaoObN/Te2/paFO65piF6X1tdHqt+WXaewYIUPmgZcguGjHkXz5s31ESIi78NAQ1QD9u/fj5Qv/oft2b9jQJgfrruyHurXq561oH7aeBrf/WJF42atcesdIxHSmRPmEREx0BDVoGPHjuGHtIVYufIntGjqg16XAqEdgItbNNBnVCz32Flk7TyHddt8sPdgIa68sheuj7odbdq00WcQEREDDVEtsVgsWP/LSmzauA4HDhyAb72zaB1QHwFNfHBRo7PwrQ+cPeeD/FM+OHLSBwdyC3GqsB4CAgJx+RXd0KNXf3Ts2FE/GhER2WOgIaoj0t9GmqaOHDmC/Px8FBYWon79+vD390ezZs3QqlUrTopHROQkBhoiIiIyPc4UTERERKbHQENERESmx0BDREREpsdAQ0RERKbHQENERESmx0BDREREpsdAQ0RERKbHQENERESmx0BDREREpsdAQ0RERKbHQENERESmx0BDREREpsdAQ0RERKbHQENERESmx0BDREREpsdAQ0RERKbHQENERESmx0BDREREpsdAQ0RERKbHQENERESmx0BDREREpsdAQ0RERKbHQENERESmx0BDREREpsdAQ0RERKbHQENERESmx0BDREREpsdAQ0RERKbHQENERESmx0BDREREpsdAQ0RERKbHQENERESmx0BDREREpsdAQ0RERKbHQENERESmx0BDREREpsdAQ0RERKbHQENERESmx0BDREREpsdAQ0RERKbHQENERESmx0BDREREpsdAQ0RERKbHQENERESmx0BDREREpsdAQ0RERKbHQENERESmx0BDREREpsdAQ0RERKbHQENERESmx0BDREREpsdAQ0RERKbHQENERESmx0BDREREpsdAQ0RERKbHQENERESmx0BDREREpsdAQ0RERKbHQENERESmx0BDREREpsdAQ0RERKbHQENERESmx0BDREREpsdAQ0RERCYH/D/1vtRaQBf2+AAAAABJRU5ErkJggg==;imageBackground=none;imageBorder=none;connectable=0;" parent="CMRdcGU0UILxmbiFrGiH-3" vertex="1">
          <mxGeometry x="120.97" y="40" width="226.35" height="240" as="geometry" />
        </mxCell>
        <mxCell id="CMRdcGU0UILxmbiFrGiH-20" value="" style="shape=image;verticalLabelPosition=bottom;labelBackgroundColor=default;verticalAlign=top;aspect=fixed;imageAspect=0;image=data:image/jpeg,/9j/4AAQSkZJRgABAQAAAQABAAD/2wCEAAoGBw4ODg4ODg4QDg4OEQ4QEA8ODhIQDg4OGxIYGBYSGBYaHzgjJx0qHhYZMEEjKCwuMzE0GiFDPDcvOyswMy4BCwsLDw4PGhAQGS4fHygxLi4wMC4uMjAuMC4uLi4uMC4wLjs7MDAuMC4uMDAuLjAuMC4wMC47LjMuMDAuMDAuLv/AABEIAOEA4QMBIgACEQEDEQH/xAAbAAEBAAMBAQEAAAAAAAAAAAABAgAGBwUEA//EAE4QAAIBAgIDCQsHCAkFAAAAAAABAgMEBREGEiETFzFBUVNUYZMWIlJxgZGSlNHS0wcVNWWhs+EjJTI0cnSj8ENzhKSxssHC4hRCY2SD/8QAGgEBAQEBAQEBAAAAAAAAAAAAAAECBQMEBv/EADcRAAICAQICBQkHBQEAAAAAAAABAgMRBDESIQVBUWGRFBVSYnGhsdHwEyVUgYLB4iMyU2PxIv/aAAwDAQACEQMRAD8A8tCShRo/dlIogUAWJIgCIGACUSYAfpESCogFGAIAoSRQKJRJhAWJCKAKFEiAUKJQgFiQikAUJIkAmAYAeEKJE0QoSUIBSKIFAFiSIAiBgAlEmAH6REgUAWYAgCJIgooUBiICxJEAoUSIBQolCgC0J+ZaAEwDCA8ISRNmShJEhShJQgFIogUAWJIgCIGIA9DBMIrXlVUqK2cMpS/Rpw8Jv/Tj85vlloTY0YJ1s6rXDOpN0459ST4PG2Xola07LDVXl/303c1JLh1NXWivJFLZyt8poONYxXvKjqVpPVzbjBPKEI8Siv5bIchzv1ds4VT4IR5ZW7fu+KWN8s36vohhteOdKOp/5KNVySflbX2GlaQ4BWsZpT76nLPUqxWUZdTXFLq/xPhw7EK1tUVSjOUJLLgeyS8Frk6mdJramKYZraq1qlNyiuHc66TWx9Us11rxkJKV+inFzm7K28PO697+OHh9xzASVtKNHZ2ESUIAlEmEBYkiAUKJEApCiRAKMJMAPDQkIpGjJQkiAUKJEhShJQgFIogQCxJEA6rhOV3g8KdNrWnaugs+BVFTcNvlRy6pCUZShOLUotxcZbGmnk0+vM9/QvSf/opSpVc5W9R63erOVOeWWslxrJLNdSy5HuV9gOH4klXTUm1lu1vKKcuqWxptdazRNjixtehtmrIvgk8pr4fs/Zk5atuw6po9RdjhkHVWUqdOpWmnsaz1p6r60ml4z87DRawsnuz2uHfKpcTjqwfhcCjn18Rrumulca6dtbNulmnUqcG6tPZGPUnx8eS4uE2S63zhKNNSfAnmTf12P8+zHM1JLiLIKKdxvLyUYgEEESUIKJRJhAWJIgFISUIAmAYAeEhRKFGjJaEkUAUJIgFCiT2tC7GncX9ClVjrU3rylB8EsoSkk+rNLYRmZzUIOb6k34czyEnyD5Drt5ZYRQcVXoWFKU03FVaVCDklwtZo/LPAuTDPNbGeI5selYtZVUjlOXUO3kOq54FyYZ5rYc8C+rPNbjiL5zX+KXgcqyfIbJ8nLfzhDh2wq59fem4/mP6s81sXb3OD0pKdKph9OaTSnTdCEknwrNDJ539IOdUoKqXNNbGs/Kk3u9ulnluTeXFnrS2mn5PkOsXV9hNVqVWrYVZR2J1J0KjS5E2fn+Y/q3zW44jOm17qpjW6pNruOWZdQnUvzJ9W+a3H8yfVvmtxxHt5z/1S8Dl3kHyHUPzJ9W+a3LtqOEVZbnSp2FWeTepThQlLJcLySHEH0oksuqRy0xGwafWFK3uoKjCNOM6UZOMVlBS1pLNLi2JbEa+aOhTYra42LrESRQPUSiTCAsSRAEwDADwkKJFGjJSEkQD7LTDbiunKjQrVop5N06M5xT5G4rhPo+YL7od16tV9h03QyUaWEW88tkaVSo1HLN99Jvynwb5lhzN16FL4hnLOV5ffOc41VcSi8b97+RoXzDfdDuvVq3sPc0Ewu6pYjQnVtq9OGVVOc6NWEF+TaSbksjYd8yx5m69Cl8Qd8ux5m69Cl8QZZm2/WWVyh9hjKa37T4flNsLitVtdxo1qqjCebpU5zS75cOqjUfmO/wCh3Xq1X2G+b5VjzN16FL4hm+VY8zdehS+IMvsJp7NZTVGtU5x397ZoiwO/6HderVvYRXwq7pRc6ltXpxXDOdCpGC8bayN/3ybHmbr0KXxD2rLEKd9ZOvGElSqwrLVq6utknKDTSbXCnxjL6zVvSGppSlZThZxucdTEiLFFOw+TwWOZJmYJkpMc2SOYGSszZvk4/X//AJVf9prCPqw7Ea1tU3ShNU55OOtqxl3r4Vk01xBnjqIOyqUE+bWOexsvynfrdH+ph95M1U/fEsTr3U1O4nukox1FLUjDKObeWSSXC2fOETTVuqmNct0urYowMzAe5QgYCiiiTCAswDADwUJIo0ZKQkopAHX9GvoOn+7Vv95yLWOh6H6bWNCypULiUqVSlrR2Qc4zjrNqScc+J8Z7G+DhfPy7Gp7DKyjiUzv09lv9CUsyzyz2vuedzkut4vsHW8X2HWt8DC+fl2NT2H0YXpfY3VWNCjVnKpPPVTpTinlFye1rLgRc9x7y6Ruim5aaSS7/AOJx7W8XnHXXV50dnxvSO0sZQjcVHCU05RShKWaTyfAfB3f4Zz8uxqewfkI9I3TXFHTSa7n/ABOT6y6vOjrGg/0NR/Yufvqg932Gc/LsansPnv8AT2w3GpuU51JuElGG5yjnJrJZuWxIj9h82ss1GprVa08o80+t9TXYu05iuL+eIohf6lI0d+W7LzOi4HoTZTtqFSqpzqVadOpJ67ik5RUtVJcSzOcLhR1a7+gv7BT+6RlnL6Sssiq41yccyxyDuEw7m6nayHuEw7m6nayOWOT5X5x1nyvzgeQ6j8TLw/kdS7hMO5up2sjO4XDubqdrI5drPlfnHN8r84HkOo/Ey+v1HUe4bDubn2sjO4fD+bqdpI5fm+Vmaz5X5xgeQ6j8TL6/UdQ7h8P5up2kj5MW0Lso0Ks6anCcKc5xk5uSzjFvJp8Ww53rPlfnOo4P9DR/dan+WQfI+XU16jTKE/t5SzJLH02cyMJXH4yineYiShAEwzMwmAeChJFGzJSFEoQDfNFdAaV3a07mvWqJ1daUYUlBKMVJpZuSeb2dXCevvYWXPXH8L3D7tFpNYJSabTVvVaae1Pv8mmcxWkOIdOuvWa3tMc3scWvyrUWW8NvCoyxt7fkdA3sbLn7j+F7h9mC6DW1ncQuaVWtKUFJKM9TVetFp55RT4zmvdDf9NuvWa3tM7ob/AKbdes1vaMM9JaPVyi4yu5PuOqaSaK0MRnTnVqVYOnGUVuepk02nt1ovkPK3srPn7j+F7hoPz/f9NuvWa3tH5/v+m3XrNb2jDJXodVCKhG7CXcb9vZ2fP3H8L3D57/5N7eNKcqVerukYylHddRwbSzyeUU/KaV8/3/Tbr1mt7Tpeh1edTCaVSpOVSpKFw3KpKUpPKpNLOT28CXmGH1njq1q9NBWO3PNLbub/AGOToUShNHfksNopcKOrXf0F/YKf3KOULhR2GztFcYVQo62rutnRhrpZtZ0o7cjLOR0rJRVTeykchKN+3tKfS59jH2mb2tPpc+xj7S5PfzppfT9z+RoQm+72tLpU+xj7R3tqXSp9jH2jJPOml9P3P5GgoTfd7al0qfYx9pm9vS6VPsY+0ZHnTS+n7n8jQjqeDfQ0f3Wp/lkeVvcUulT7KPtPedmrbDqlDW1lStq0dZrLNaknmzLPh1+spujCNcsviT2ZyZcZRHKVE0d97lGIBBBMAwFPBEDDRkoUSKAOzaHUt0we3p55a9GrDPhyzlNZmub1Mun8P/rf8zUsK0mv7SG5W9xKnTzbUHGE4xb2vLWi8tvIfX3d4t0t9lQ90zhnJWj1ddk5U2RSk881nt9V4Nj3qn07+7f8x3q5dOXqz981zu6xbpb7Kh7p7ehOlN/dYhRoXFw6lOSq60dzpR4ISa2xSfCkOYsj0hCEpu2PJN/2rq/SfRvWS6cvVn7471kunL1Z++fT8pOPXlnVtlbVtyU4Tc1qRln3yS4Ys1Xu4xXpcuyoe6OZmjzhdWrI2xSfalndr0X2Gw71kunL1Z++bXg+GOysI2zqKo6UK3f6uprJylLgzfLynNO7jFely7Kh7p+NzpbiVaDp1LqUoSTjKKhCGtF8Kzik/tGGLtFrb4qFlkWs52x8IrqbPKX8+YSUJTst5eSj0LPH72jFU6VzUhBfowU3qx8WfAecJDMoxksSSftWT2O6rEel1fT/AAM7qcQ6XV9P8DyEYMIx9jV6C8F8j2O6jEOl1fT/AAHuoxDpdX0/wPHNg0Fw+jdXm5V4bpDc6ktVuUe+Wrk808+MmEYthTXBzcFhLOyPw7qMQ6XV9P8AAe6fEOl1fT/A+3T/AAyhaXFKFvTVKMqSm0pSlnLXks++fIka6FglUabYKyMFh+qj1e6fEOl1fT/Ai6x68qwdOpc1JQl+lFzeUlyPLiPOMKeqprTyorwQlEmA9D9IiQUAJgGAHhISEUaMiIGApSFEigBNm+TT6Vt/2bj7pmso+nDL+rbVadei9WpTecXlmuBpprkabXlIzzug51ygt2mvFHT9O9FLjEalCdGdKCpRlGSqynFvvk9mrF8hru9jf87a9rV+GfnvmYh4Fv2U/fM3zMQ8C37KfvmOZy6qtfVBQjw4X/T9N7G/5217Wr8Md7K/5217Wp8M/PfLxDwbfsp++O+ViHgW/ZT98YZ6fePqn6b2d/ztr2tX4Zm9nfc5a9rV+Gfnvk4h4Fv2U/fPY0P0xu728jRqxoqnKFRvUpyi80s1tcmXDM2T6Qrg5vhwuZ5m9rfc7a9rV+GZvaX3OWva1fhnvac6U3OH1qMKMaTjOm5y3SEpPPWy2ZNGv75F/wCBb9lP3yc/rBKrekLYKceHDL3tr7nLXtavwx3t77nbXtanwz898i/8C37Kfvmb5F/4Fv2c/fH/AK+sHp94+qfpvb33O2va1PhnsaJaIXNldbvVnRlFQnH8nUm5ZvLilFbNnKeJvj3/AIFv2U/fHfGv/At+zn745mLK+kLIOEuHD5H7fKp+uUP6iH3kzUj6cXxWte1XWrtSlqqKUVqwhBZ5RS8bfnPkRpI6GmrddMYS3SLEkQe4iBgAlEmAFmAYAeChRKFGjJYkIoARAwFKQokUAJRKFEBSFElIA9/RDRmeIVZZydOhTy3Solm23wRjnszf2eZPocaeE4RGObo0JZPKUu/uZrjee2bWzi2H56OwhYYNCqo6zVvK6ny1Junr7fJkvEkcpvryrXqzrVZudSo3KTfG+RdS4lxIzucbhlrrJpyca4vGF1/t47dS6zrcbzCMV/J61C4lk8ozg4VlHjcdZKS8aNH0z0Sdi1WouU7actXvts6U3wRk+NPifke3LPWaVSUZRlGTUotSi4vKSkuBp8p13DKyxTCVuiTlXpTpy2f0qzWul+0k15BsScJ9HyjOEm628NPq9nhusbYZyMSE/aUaO21jkUKJEgKElCAUiiBQBYkiAKEDABMMMAPCMQCaMiKJQgFiQigBEDAUpCSKAKQokUQHYNFqsL/B4UdbL8jO0nlwwlGGon6Oq/KcsxOwrW1adGvCUZwbTWWyS4pRfGnxM+7RPSWrh1VyitejPJVaTeSklwSi+Jr7f8OjU8awfEqcd1lbya4IXahCpCXGlrcfXFszscf+pobZtQcq5PPLdP65c9+XM5Pb0J1ZxhCEpzk1GMYLOTlyJHXLOksKwn8o1rUKM5y5HXlm9XP9uWS8hKvsFw+LnTna05Nf0DhOs1yd7nLLZ4jQ9MNLZ4g4wgpUrWD1oxbWvOfhSy2eLLg6+JuSbs18owUHGtPLb6/Z+XLl25ZryKJFGjtN55lCSIIUJIkKUJIgFIogUAWJIgCYBgB4QkFGjJRgCAIokQCxIKAEQMBSkJIoApCSKICsxJFAFISRQBaEhFIAoSRAKEkQUoSRICiiBAKMJMAPCElCaMliQhALMAQBFEoQCzCSgURAwApCSKAKQokUQFISUUAKElCgC0JIgFCSIBQokQUpCSJAUYBgB4CLMMNGRFGGAChMMAExGGAFDEwwAULAwFETDABQmGAFCjDCARRhgAoTDABQmGACJhgAoUYYQphhhgMn/9k=;" parent="CMRdcGU0UILxmbiFrGiH-3" vertex="1">
          <mxGeometry width="80" height="80" as="geometry" />
        </mxCell>
        <mxCell id="-QjtrjUzRDEMRZ5MF8oH-9" value="1" style="rounded=1;whiteSpace=wrap;html=1;fillColor=#007CBD;strokeColor=none;fontColor=#FFFFFF;fontStyle=1;fontSize=22;" parent="CMRdcGU0UILxmbiFrGiH-70" vertex="1">
          <mxGeometry width="40" height="38" as="geometry" />
        </mxCell>
        <mxCell id="CMRdcGU0UILxmbiFrGiH-103" value="" style="edgeStyle=orthogonalEdgeStyle;html=1;endArrow=block;elbow=vertical;startArrow=none;endFill=1;strokeColor=#545B64;rounded=0;fontSize=13;fontColor=#000000;entryX=0;entryY=0.5;entryDx=0;entryDy=0;exitX=1;exitY=0.75;exitDx=0;exitDy=0;" parent="TlHhYiuxW51YW4MIgqar-1" source="CMRdcGU0UILxmbiFrGiH-3" target="TlHhYiuxW51YW4MIgqar-39" edge="1">
          <mxGeometry width="100" relative="1" as="geometry">
            <mxPoint x="270" y="630" as="sourcePoint" />
            <mxPoint x="400" y="641" as="targetPoint" />
          </mxGeometry>
        </mxCell>
        <mxCell id="CMRdcGU0UILxmbiFrGiH-104" value="" style="sketch=0;points=[[0,0,0],[0.25,0,0],[0.5,0,0],[0.75,0,0],[1,0,0],[0,1,0],[0.25,1,0],[0.5,1,0],[0.75,1,0],[1,1,0],[0,0.25,0],[0,0.5,0],[0,0.75,0],[1,0.25,0],[1,0.5,0],[1,0.75,0]];outlineConnect=0;fontColor=#232F3E;gradientColor=#FF4F8B;gradientDirection=north;fillColor=#BC1356;strokeColor=#ffffff;dashed=0;verticalLabelPosition=bottom;verticalAlign=top;align=center;html=1;fontSize=12;fontStyle=0;aspect=fixed;shape=mxgraph.aws4.resourceIcon;resIcon=mxgraph.aws4.sns;dashPattern=8 8;" parent="TlHhYiuxW51YW4MIgqar-1" vertex="1">
          <mxGeometry x="221" y="640" width="78" height="78" as="geometry" />
        </mxCell>
        <mxCell id="CMRdcGU0UILxmbiFrGiH-105" value="5" style="rounded=1;whiteSpace=wrap;html=1;fillColor=#007CBD;strokeColor=none;fontColor=#FFFFFF;fontStyle=1;fontSize=22;labelBackgroundColor=none;" parent="TlHhYiuxW51YW4MIgqar-1" vertex="1">
          <mxGeometry x="153.65999999999997" y="631" width="40" height="38" as="geometry" />
        </mxCell>
        <mxCell id="CMRdcGU0UILxmbiFrGiH-106" value="&lt;b&gt;AWS SNS&lt;/b&gt;" style="text;html=1;align=center;verticalAlign=middle;resizable=0;points=[];autosize=1;strokeColor=none;fillColor=none;fontSize=13;fontColor=#000000;" parent="TlHhYiuxW51YW4MIgqar-1" vertex="1">
          <mxGeometry x="219" y="717" width="80" height="30" as="geometry" />
        </mxCell>
        <mxCell id="CMRdcGU0UILxmbiFrGiH-107" value="" style="edgeStyle=orthogonalEdgeStyle;html=1;endArrow=block;elbow=vertical;startArrow=none;endFill=1;strokeColor=#545B64;rounded=0;fontSize=13;fontColor=#000000;exitX=0.75;exitY=1;exitDx=0;exitDy=0;entryX=0.5;entryY=0;entryDx=0;entryDy=0;entryPerimeter=0;" parent="TlHhYiuxW51YW4MIgqar-1" source="CMRdcGU0UILxmbiFrGiH-3" target="CMRdcGU0UILxmbiFrGiH-104" edge="1">
          <mxGeometry width="100" relative="1" as="geometry">
            <mxPoint x="180" y="590" as="sourcePoint" />
            <mxPoint x="380" y="580" as="targetPoint" />
          </mxGeometry>
        </mxCell>
        <mxCell id="CMRdcGU0UILxmbiFrGiH-56" value="" style="edgeStyle=orthogonalEdgeStyle;html=1;endArrow=block;elbow=vertical;startArrow=none;endFill=1;strokeColor=#545B64;rounded=0;fontSize=13;fontColor=#000000;entryX=0;entryY=0.5;entryDx=0;entryDy=0;backgroundOutline=1;exitX=1;exitY=0.25;exitDx=0;exitDy=0;" parent="TlHhYiuxW51YW4MIgqar-1" source="CMRdcGU0UILxmbiFrGiH-3" target="CMRdcGU0UILxmbiFrGiH-52" edge="1">
          <mxGeometry width="100" relative="1" as="geometry">
            <mxPoint x="300" y="360" as="sourcePoint" />
            <mxPoint x="460" y="310" as="targetPoint" />
          </mxGeometry>
        </mxCell>
        <mxCell id="CMRdcGU0UILxmbiFrGiH-30" value="" style="edgeStyle=orthogonalEdgeStyle;html=1;endArrow=block;elbow=vertical;startArrow=block;startFill=1;endFill=1;strokeColor=#545B64;rounded=0;fontSize=13;fontColor=#000000;entryX=0;entryY=0.5;entryDx=0;entryDy=0;entryPerimeter=0;exitX=1;exitY=0.5;exitDx=0;exitDy=0;" parent="TlHhYiuxW51YW4MIgqar-1" source="CMRdcGU0UILxmbiFrGiH-3" target="CMRdcGU0UILxmbiFrGiH-24" edge="1">
          <mxGeometry width="100" relative="1" as="geometry">
            <mxPoint x="305" y="390" as="sourcePoint" />
            <mxPoint x="309.03" y="390" as="targetPoint" />
          </mxGeometry>
        </mxCell>
        <mxCell id="CMRdcGU0UILxmbiFrGiH-108" value="&lt;b&gt;AWS Lambda&lt;/b&gt;" style="text;html=1;align=center;verticalAlign=middle;resizable=0;points=[];autosize=1;strokeColor=none;fillColor=none;fontSize=13;fontColor=#000000;" parent="TlHhYiuxW51YW4MIgqar-1" vertex="1">
          <mxGeometry x="442" y="439" width="110" height="30" as="geometry" />
        </mxCell>
        <mxCell id="CMRdcGU0UILxmbiFrGiH-139" value="3" style="rounded=1;whiteSpace=wrap;html=1;fillColor=#007CBD;strokeColor=none;fontColor=#FFFFFF;fontStyle=1;fontSize=22;labelBackgroundColor=none;" parent="TlHhYiuxW51YW4MIgqar-1" vertex="1">
          <mxGeometry x="400" y="320" width="40" height="38" as="geometry" />
        </mxCell>
        <mxCell id="TlHhYiuxW51YW4MIgqar-18" value="" style="group" vertex="1" connectable="0" parent="TlHhYiuxW51YW4MIgqar-1">
          <mxGeometry x="400" width="578.5" height="315.08" as="geometry" />
        </mxCell>
        <mxCell id="CMRdcGU0UILxmbiFrGiH-73" value="" style="group" parent="TlHhYiuxW51YW4MIgqar-18" vertex="1" connectable="0">
          <mxGeometry width="578.5" height="285.0848203238843" as="geometry" />
        </mxCell>
        <mxCell id="CMRdcGU0UILxmbiFrGiH-66" value="" style="group" parent="CMRdcGU0UILxmbiFrGiH-73" vertex="1" connectable="0">
          <mxGeometry x="27" y="14.924527783123821" width="551.5" height="270.16029254076045" as="geometry" />
        </mxCell>
        <mxCell id="-QjtrjUzRDEMRZ5MF8oH-14" value="" style="whiteSpace=wrap;html=1;fillColor=none;fontSize=14;fontColor=#000000;dashed=0;fontStyle=0;align=center;verticalAlign=top;strokeColor=#D86613;gradientColor=none;spacingLeft=0;labelPosition=center;verticalLabelPosition=bottom;container=0;pointerEvents=0;collapsible=0;recursiveResize=0;" parent="CMRdcGU0UILxmbiFrGiH-66" vertex="1">
          <mxGeometry y="85.07193835748261" width="219.5" height="149.56971213329297" as="geometry" />
        </mxCell>
        <mxCell id="-QjtrjUzRDEMRZ5MF8oH-28" value="2" style="rounded=1;whiteSpace=wrap;html=1;fillColor=#007CBD;strokeColor=none;fontColor=#FFFFFF;fontStyle=1;fontSize=22;" parent="CMRdcGU0UILxmbiFrGiH-66" vertex="1">
          <mxGeometry x="-27" width="40" height="35.52280663165708" as="geometry" />
        </mxCell>
        <mxCell id="CMRdcGU0UILxmbiFrGiH-12" value="&lt;span style=&quot;font-family: Helvetica; font-style: normal; font-variant-ligatures: normal; font-variant-caps: normal; letter-spacing: normal; orphans: 2; text-indent: 0px; text-transform: none; widows: 2; word-spacing: 0px; -webkit-text-stroke-width: 0px; background-color: rgb(251, 251, 251); text-decoration-thickness: initial; text-decoration-style: initial; text-decoration-color: initial; float: none; display: inline !important;&quot;&gt;&lt;b style=&quot;&quot;&gt;&lt;font style=&quot;font-size: 13px;&quot;&gt;AWS Batch Job&lt;/font&gt;&lt;/b&gt;&lt;/span&gt;" style="text;whiteSpace=wrap;html=1;align=center;" parent="CMRdcGU0UILxmbiFrGiH-66" vertex="1">
          <mxGeometry x="29.620000000000005" y="232.7678645074372" width="170.75" height="37.39242803332324" as="geometry" />
        </mxCell>
        <mxCell id="CMRdcGU0UILxmbiFrGiH-14" value="" style="sketch=0;points=[[0,0,0],[0.25,0,0],[0.5,0,0],[0.75,0,0],[1,0,0],[0,1,0],[0.25,1,0],[0.5,1,0],[0.75,1,0],[1,1,0],[0,0.25,0],[0,0.5,0],[0,0.75,0],[1,0.25,0],[1,0.5,0],[1,0.75,0]];outlineConnect=0;fontColor=#232F3E;gradientColor=#F78E04;gradientDirection=north;fillColor=#D05C17;strokeColor=#ffffff;dashed=0;verticalLabelPosition=bottom;verticalAlign=top;align=center;html=1;fontSize=12;fontStyle=0;aspect=fixed;shape=mxgraph.aws4.resourceIcon;resIcon=mxgraph.aws4.ecs;container=0;" parent="CMRdcGU0UILxmbiFrGiH-66" vertex="1">
          <mxGeometry x="93" y="120.59058040746746" width="44.40350828957135" height="44.40350828957135" as="geometry" />
        </mxCell>
        <mxCell id="CMRdcGU0UILxmbiFrGiH-27" value="AWS ECS" style="text;html=1;align=center;verticalAlign=middle;resizable=0;points=[];autosize=1;strokeColor=none;fillColor=none;fontSize=13;fontColor=#000000;container=0;" parent="CMRdcGU0UILxmbiFrGiH-66" vertex="1">
          <mxGeometry x="75" y="164.99408869703882" width="80" height="30" as="geometry" />
        </mxCell>
        <mxCell id="CMRdcGU0UILxmbiFrGiH-28" value="&lt;b&gt;AWS Postgres RDS&lt;/b&gt;" style="text;html=1;align=center;verticalAlign=middle;resizable=0;points=[];autosize=1;strokeColor=none;fillColor=none;fontSize=13;fontColor=#000000;container=0;" parent="CMRdcGU0UILxmbiFrGiH-66" vertex="1">
          <mxGeometry x="230.5" y="225.07165049077557" width="140" height="30" as="geometry" />
        </mxCell>
        <mxCell id="CMRdcGU0UILxmbiFrGiH-13" value="" style="sketch=0;outlineConnect=0;fontColor=#232F3E;gradientColor=none;fillColor=#2E27AD;strokeColor=none;dashed=0;verticalLabelPosition=bottom;verticalAlign=top;align=center;html=1;fontSize=12;fontStyle=0;pointerEvents=1;shape=mxgraph.aws4.rds_multi_az_db_cluster;container=0;" parent="CMRdcGU0UILxmbiFrGiH-66" vertex="1">
          <mxGeometry x="261.5" y="159.85641582579524" width="78" height="72.91523466498033" as="geometry" />
        </mxCell>
        <mxCell id="CMRdcGU0UILxmbiFrGiH-31" value="" style="edgeStyle=orthogonalEdgeStyle;html=1;endArrow=block;elbow=vertical;startArrow=block;startFill=1;endFill=1;strokeColor=#545B64;rounded=0;fontSize=13;fontColor=#000000;exitX=1;exitY=0.75;exitDx=0;exitDy=0;" parent="CMRdcGU0UILxmbiFrGiH-66" source="-QjtrjUzRDEMRZ5MF8oH-14" target="CMRdcGU0UILxmbiFrGiH-13" edge="1">
          <mxGeometry width="100" relative="1" as="geometry">
            <mxPoint x="233.5" y="130.92023865167295" as="sourcePoint" />
            <mxPoint x="293" y="131.3409034670479" as="targetPoint" />
            <Array as="points" />
          </mxGeometry>
        </mxCell>
        <mxCell id="CMRdcGU0UILxmbiFrGiH-65" value="" style="group" parent="CMRdcGU0UILxmbiFrGiH-66" vertex="1" connectable="0">
          <mxGeometry x="243" y="42.06648153748865" width="308.5" height="79.92631492122844" as="geometry" />
        </mxCell>
        <mxCell id="CMRdcGU0UILxmbiFrGiH-17" value="Demo_linking.py" style="text;html=1;align=center;verticalAlign=middle;resizable=0;points=[];autosize=1;strokeColor=none;fillColor=none;fontSize=13;fontColor=#000000;" parent="CMRdcGU0UILxmbiFrGiH-65" vertex="1">
          <mxGeometry x="176.5" y="63.936102939154814" width="120" height="30" as="geometry" />
        </mxCell>
        <mxCell id="CMRdcGU0UILxmbiFrGiH-63" value="" style="group" parent="CMRdcGU0UILxmbiFrGiH-65" vertex="1" connectable="0">
          <mxGeometry width="147.25" height="79.92631492122844" as="geometry" />
        </mxCell>
        <mxCell id="CMRdcGU0UILxmbiFrGiH-16" value="" style="sketch=0;aspect=fixed;html=1;points=[];align=center;image;fontSize=12;image=img/lib/mscae/Docker.svg;fontColor=#000000;" parent="CMRdcGU0UILxmbiFrGiH-63" vertex="1">
          <mxGeometry x="97.25" y="60.01575211019767" width="46.740535041654056" height="38.327238734156325" as="geometry" />
        </mxCell>
        <mxCell id="CMRdcGU0UILxmbiFrGiH-59" value="" style="group" parent="CMRdcGU0UILxmbiFrGiH-63" vertex="1" connectable="0">
          <mxGeometry width="80" height="79.92631492122844" as="geometry" />
        </mxCell>
        <mxCell id="CMRdcGU0UILxmbiFrGiH-21" value="&lt;b&gt;AWS ECR&lt;/b&gt;" style="text;html=1;align=center;verticalAlign=middle;resizable=0;points=[];autosize=1;strokeColor=none;fillColor=none;fontSize=13;fontColor=#000000;" parent="CMRdcGU0UILxmbiFrGiH-59" vertex="1">
          <mxGeometry y="31" width="80" height="30" as="geometry" />
        </mxCell>
        <mxCell id="CMRdcGU0UILxmbiFrGiH-64" value="" style="edgeStyle=orthogonalEdgeStyle;rounded=0;orthogonalLoop=1;jettySize=auto;html=1;fontSize=13;fontColor=#000000;entryX=1.013;entryY=0.508;entryDx=0;entryDy=0;entryPerimeter=0;" parent="CMRdcGU0UILxmbiFrGiH-65" source="CMRdcGU0UILxmbiFrGiH-17" target="CMRdcGU0UILxmbiFrGiH-16" edge="1">
          <mxGeometry relative="1" as="geometry" />
        </mxCell>
        <mxCell id="CMRdcGU0UILxmbiFrGiH-138" value="&lt;b&gt;AWS Glue Catalog&lt;/b&gt;" style="text;html=1;align=center;verticalAlign=middle;resizable=0;points=[];autosize=1;strokeColor=none;fillColor=none;fontSize=13;fontColor=#000000;" parent="CMRdcGU0UILxmbiFrGiH-66" vertex="1">
          <mxGeometry x="39.749999999999986" y="-14.924527783123835" width="140" height="30" as="geometry" />
        </mxCell>
        <mxCell id="TlHhYiuxW51YW4MIgqar-9" value="" style="group" vertex="1" connectable="0" parent="CMRdcGU0UILxmbiFrGiH-73">
          <mxGeometry width="570" height="280" as="geometry" />
        </mxCell>
        <mxCell id="CMRdcGU0UILxmbiFrGiH-52" value="" style="whiteSpace=wrap;html=1;fontSize=13;fontColor=#000000;dashed=1;dashPattern=8 8;fillColor=none;imageAspect=0;container=0;" parent="TlHhYiuxW51YW4MIgqar-9" vertex="1">
          <mxGeometry width="570" height="280" as="geometry" />
        </mxCell>
        <mxCell id="CMRdcGU0UILxmbiFrGiH-109" value="" style="sketch=0;outlineConnect=0;fontColor=#232F3E;gradientColor=none;fillColor=#4D27AA;strokeColor=none;dashed=0;verticalLabelPosition=bottom;verticalAlign=top;align=center;html=1;fontSize=12;fontStyle=0;aspect=fixed;pointerEvents=1;shape=mxgraph.aws4.glue_data_catalog;" parent="TlHhYiuxW51YW4MIgqar-9" vertex="1">
          <mxGeometry x="119" y="30.000000000000014" width="43.5" height="47.13" as="geometry" />
        </mxCell>
        <mxCell id="CMRdcGU0UILxmbiFrGiH-11" value="" style="sketch=0;points=[[0,0,0],[0.25,0,0],[0.5,0,0],[0.75,0,0],[1,0,0],[0,1,0],[0.25,1,0],[0.5,1,0],[0.75,1,0],[1,1,0],[0,0.25,0],[0,0.5,0],[0,0.75,0],[1,0.25,0],[1,0.5,0],[1,0.75,0]];outlineConnect=0;fontColor=#232F3E;gradientColor=#F78E04;gradientDirection=north;fillColor=#D05C17;strokeColor=#ffffff;dashed=0;verticalLabelPosition=bottom;verticalAlign=top;align=center;html=1;fontSize=12;fontStyle=0;aspect=fixed;shape=mxgraph.aws4.resourceIcon;resIcon=mxgraph.aws4.batch;container=0;" parent="TlHhYiuxW51YW4MIgqar-9" vertex="1">
          <mxGeometry x="27" y="99.99646614060642" width="36.457617332490166" height="36.457617332490166" as="geometry" />
        </mxCell>
        <mxCell id="TlHhYiuxW51YW4MIgqar-7" value="" style="edgeStyle=orthogonalEdgeStyle;rounded=0;orthogonalLoop=1;jettySize=auto;html=1;" edge="1" parent="TlHhYiuxW51YW4MIgqar-9" source="TlHhYiuxW51YW4MIgqar-3" target="CMRdcGU0UILxmbiFrGiH-109">
          <mxGeometry relative="1" as="geometry" />
        </mxCell>
        <mxCell id="TlHhYiuxW51YW4MIgqar-3" value="" style="sketch=0;points=[[0,0,0],[0.25,0,0],[0.5,0,0],[0.75,0,0],[1,0,0],[0,1,0],[0.25,1,0],[0.5,1,0],[0.75,1,0],[1,1,0],[0,0.25,0],[0,0.5,0],[0,0.75,0],[1,0.25,0],[1,0.5,0],[1,0.75,0]];outlineConnect=0;fontColor=#232F3E;gradientColor=#60A337;gradientDirection=north;fillColor=#277116;strokeColor=#ffffff;dashed=0;verticalLabelPosition=bottom;verticalAlign=top;align=center;html=1;fontSize=12;fontStyle=0;aspect=fixed;shape=mxgraph.aws4.resourceIcon;resIcon=mxgraph.aws4.s3;" vertex="1" parent="TlHhYiuxW51YW4MIgqar-9">
          <mxGeometry x="240" y="29.13" width="48" height="48" as="geometry" />
        </mxCell>
        <mxCell id="TlHhYiuxW51YW4MIgqar-8" value="&lt;b&gt;S3 Bucket&lt;/b&gt;" style="text;html=1;align=center;verticalAlign=middle;resizable=0;points=[];autosize=1;strokeColor=none;fillColor=none;" vertex="1" parent="TlHhYiuxW51YW4MIgqar-9">
          <mxGeometry x="235" width="80" height="30" as="geometry" />
        </mxCell>
        <mxCell id="CMRdcGU0UILxmbiFrGiH-110" value="" style="edgeStyle=orthogonalEdgeStyle;html=1;endArrow=block;elbow=vertical;startArrow=none;endFill=1;strokeColor=#545B64;rounded=0;fontSize=13;fontColor=#000000;entryX=0.5;entryY=0;entryDx=0;entryDy=0;exitX=0.403;exitY=1.041;exitDx=0;exitDy=0;exitPerimeter=0;" parent="CMRdcGU0UILxmbiFrGiH-73" source="CMRdcGU0UILxmbiFrGiH-109" target="-QjtrjUzRDEMRZ5MF8oH-14" edge="1">
          <mxGeometry width="100" relative="1" as="geometry">
            <mxPoint x="-220" y="110" as="sourcePoint" />
            <mxPoint x="-120" y="110" as="targetPoint" />
          </mxGeometry>
        </mxCell>
        <mxCell id="CMRdcGU0UILxmbiFrGiH-74" value="&lt;b&gt;Pre Process&lt;/b&gt;" style="text;html=1;align=center;verticalAlign=middle;resizable=0;points=[];autosize=1;strokeColor=none;fillColor=none;fontSize=13;fontColor=#000000;" parent="TlHhYiuxW51YW4MIgqar-18" vertex="1">
          <mxGeometry x="239.25" y="285.08" width="100" height="30" as="geometry" />
        </mxCell>
        <mxCell id="TlHhYiuxW51YW4MIgqar-47" value="" style="group" vertex="1" connectable="0" parent="TlHhYiuxW51YW4MIgqar-1">
          <mxGeometry x="401" y="483" width="570" height="315.0799999999999" as="geometry" />
        </mxCell>
        <mxCell id="TlHhYiuxW51YW4MIgqar-46" value="&lt;b&gt;Demo Linking&lt;br&gt;&lt;/b&gt;" style="text;html=1;align=center;verticalAlign=middle;resizable=0;points=[];autosize=1;strokeColor=none;fillColor=none;fontSize=13;fontColor=#000000;container=0;" vertex="1" parent="TlHhYiuxW51YW4MIgqar-47">
          <mxGeometry x="234.25" y="285.0799999999999" width="110" height="30" as="geometry" />
        </mxCell>
        <mxCell id="TlHhYiuxW51YW4MIgqar-22" value="" style="whiteSpace=wrap;html=1;fillColor=none;fontSize=14;fontColor=#000000;dashed=0;fontStyle=0;align=center;verticalAlign=top;strokeColor=#D86613;gradientColor=none;spacingLeft=0;labelPosition=center;verticalLabelPosition=bottom;container=0;pointerEvents=0;collapsible=0;recursiveResize=0;" vertex="1" parent="TlHhYiuxW51YW4MIgqar-47">
          <mxGeometry x="27" y="99.99646614060646" width="219.5" height="149.56971213329297" as="geometry" />
        </mxCell>
        <mxCell id="TlHhYiuxW51YW4MIgqar-23" value="4" style="rounded=1;whiteSpace=wrap;html=1;fillColor=#007CBD;strokeColor=none;fontColor=#FFFFFF;fontStyle=1;fontSize=22;container=0;" vertex="1" parent="TlHhYiuxW51YW4MIgqar-47">
          <mxGeometry y="14.924527783123835" width="40" height="35.52280663165708" as="geometry" />
        </mxCell>
        <mxCell id="TlHhYiuxW51YW4MIgqar-24" value="&lt;span style=&quot;font-family: Helvetica; font-style: normal; font-variant-ligatures: normal; font-variant-caps: normal; letter-spacing: normal; orphans: 2; text-indent: 0px; text-transform: none; widows: 2; word-spacing: 0px; -webkit-text-stroke-width: 0px; background-color: rgb(251, 251, 251); text-decoration-thickness: initial; text-decoration-style: initial; text-decoration-color: initial; float: none; display: inline !important;&quot;&gt;&lt;b style=&quot;&quot;&gt;&lt;font style=&quot;font-size: 13px;&quot;&gt;AWS Batch Job&lt;/font&gt;&lt;/b&gt;&lt;/span&gt;" style="text;whiteSpace=wrap;html=1;align=center;container=0;" vertex="1" parent="TlHhYiuxW51YW4MIgqar-47">
          <mxGeometry x="56.620000000000005" y="247.69239229056097" width="170.75" height="37.39242803332324" as="geometry" />
        </mxCell>
        <mxCell id="TlHhYiuxW51YW4MIgqar-25" value="" style="sketch=0;points=[[0,0,0],[0.25,0,0],[0.5,0,0],[0.75,0,0],[1,0,0],[0,1,0],[0.25,1,0],[0.5,1,0],[0.75,1,0],[1,1,0],[0,0.25,0],[0,0.5,0],[0,0.75,0],[1,0.25,0],[1,0.5,0],[1,0.75,0]];outlineConnect=0;fontColor=#232F3E;gradientColor=#F78E04;gradientDirection=north;fillColor=#D05C17;strokeColor=#ffffff;dashed=0;verticalLabelPosition=bottom;verticalAlign=top;align=center;html=1;fontSize=12;fontStyle=0;aspect=fixed;shape=mxgraph.aws4.resourceIcon;resIcon=mxgraph.aws4.ecs;container=0;" vertex="1" parent="TlHhYiuxW51YW4MIgqar-47">
          <mxGeometry x="120" y="135.51510819059126" width="44.40350828957135" height="44.40350828957135" as="geometry" />
        </mxCell>
        <mxCell id="TlHhYiuxW51YW4MIgqar-26" value="AWS ECS" style="text;html=1;align=center;verticalAlign=middle;resizable=0;points=[];autosize=1;strokeColor=none;fillColor=none;fontSize=13;fontColor=#000000;container=0;" vertex="1" parent="TlHhYiuxW51YW4MIgqar-47">
          <mxGeometry x="102" y="179.91861648016265" width="80" height="30" as="geometry" />
        </mxCell>
        <mxCell id="TlHhYiuxW51YW4MIgqar-27" value="&lt;b&gt;AWS Postgres RDS&lt;/b&gt;" style="text;html=1;align=center;verticalAlign=middle;resizable=0;points=[];autosize=1;strokeColor=none;fillColor=none;fontSize=13;fontColor=#000000;container=0;" vertex="1" parent="TlHhYiuxW51YW4MIgqar-47">
          <mxGeometry x="257.5" y="239.99617827389943" width="140" height="30" as="geometry" />
        </mxCell>
        <mxCell id="TlHhYiuxW51YW4MIgqar-28" value="" style="sketch=0;outlineConnect=0;fontColor=#232F3E;gradientColor=none;fillColor=#2E27AD;strokeColor=none;dashed=0;verticalLabelPosition=bottom;verticalAlign=top;align=center;html=1;fontSize=12;fontStyle=0;pointerEvents=1;shape=mxgraph.aws4.rds_multi_az_db_cluster;container=0;" vertex="1" parent="TlHhYiuxW51YW4MIgqar-47">
          <mxGeometry x="288.5" y="174.7809436089192" width="78" height="72.91523466498033" as="geometry" />
        </mxCell>
        <mxCell id="TlHhYiuxW51YW4MIgqar-29" value="" style="edgeStyle=orthogonalEdgeStyle;html=1;endArrow=block;elbow=vertical;startArrow=block;startFill=1;endFill=1;strokeColor=#545B64;rounded=0;fontSize=13;fontColor=#000000;exitX=1;exitY=0.75;exitDx=0;exitDy=0;" edge="1" parent="TlHhYiuxW51YW4MIgqar-47" source="TlHhYiuxW51YW4MIgqar-22" target="TlHhYiuxW51YW4MIgqar-28">
          <mxGeometry width="100" relative="1" as="geometry">
            <mxPoint x="260.5" y="145.84476643479684" as="sourcePoint" />
            <mxPoint x="320" y="146.2654312501718" as="targetPoint" />
            <Array as="points" />
          </mxGeometry>
        </mxCell>
        <mxCell id="TlHhYiuxW51YW4MIgqar-37" value="&lt;b&gt;AWS Glue Catalog&lt;/b&gt;" style="text;html=1;align=center;verticalAlign=middle;resizable=0;points=[];autosize=1;strokeColor=none;fillColor=none;fontSize=13;fontColor=#000000;container=0;" vertex="1" parent="TlHhYiuxW51YW4MIgqar-47">
          <mxGeometry x="66.75" width="140" height="30" as="geometry" />
        </mxCell>
        <mxCell id="TlHhYiuxW51YW4MIgqar-31" value="Demo_linking.py" style="text;html=1;align=center;verticalAlign=middle;resizable=0;points=[];autosize=1;strokeColor=none;fillColor=none;fontSize=13;fontColor=#000000;container=0;" vertex="1" parent="TlHhYiuxW51YW4MIgqar-47">
          <mxGeometry x="446.5" y="120.92711225976745" width="120" height="30" as="geometry" />
        </mxCell>
        <mxCell id="TlHhYiuxW51YW4MIgqar-36" value="" style="edgeStyle=orthogonalEdgeStyle;rounded=0;orthogonalLoop=1;jettySize=auto;html=1;fontSize=13;fontColor=#000000;entryX=1.013;entryY=0.508;entryDx=0;entryDy=0;entryPerimeter=0;" edge="1" parent="TlHhYiuxW51YW4MIgqar-47" source="TlHhYiuxW51YW4MIgqar-31" target="TlHhYiuxW51YW4MIgqar-33">
          <mxGeometry relative="1" as="geometry" />
        </mxCell>
        <mxCell id="TlHhYiuxW51YW4MIgqar-33" value="" style="sketch=0;aspect=fixed;html=1;points=[];align=center;image;fontSize=12;image=img/lib/mscae/Docker.svg;fontColor=#000000;container=0;" vertex="1" parent="TlHhYiuxW51YW4MIgqar-47">
          <mxGeometry x="367.25" y="117.00676143081023" width="46.740535041654056" height="38.327238734156325" as="geometry" />
        </mxCell>
        <mxCell id="TlHhYiuxW51YW4MIgqar-35" value="&lt;b&gt;AWS ECR&lt;/b&gt;" style="text;html=1;align=center;verticalAlign=middle;resizable=0;points=[];autosize=1;strokeColor=none;fillColor=none;fontSize=13;fontColor=#000000;container=0;" vertex="1" parent="TlHhYiuxW51YW4MIgqar-47">
          <mxGeometry x="270" y="87.99100932061253" width="80" height="30" as="geometry" />
        </mxCell>
        <mxCell id="TlHhYiuxW51YW4MIgqar-39" value="" style="whiteSpace=wrap;html=1;fontSize=13;fontColor=#000000;dashed=1;dashPattern=8 8;fillColor=none;imageAspect=0;container=0;" vertex="1" parent="TlHhYiuxW51YW4MIgqar-47">
          <mxGeometry y="5.079999999999927" width="570" height="280" as="geometry" />
        </mxCell>
        <mxCell id="TlHhYiuxW51YW4MIgqar-40" value="" style="sketch=0;outlineConnect=0;fontColor=#232F3E;gradientColor=none;fillColor=#4D27AA;strokeColor=none;dashed=0;verticalLabelPosition=bottom;verticalAlign=top;align=center;html=1;fontSize=12;fontStyle=0;aspect=fixed;pointerEvents=1;shape=mxgraph.aws4.glue_data_catalog;container=0;" vertex="1" parent="TlHhYiuxW51YW4MIgqar-47">
          <mxGeometry x="119" y="30" width="43.5" height="47.13" as="geometry" />
        </mxCell>
        <mxCell id="TlHhYiuxW51YW4MIgqar-45" value="" style="edgeStyle=orthogonalEdgeStyle;html=1;endArrow=block;elbow=vertical;startArrow=none;endFill=1;strokeColor=#545B64;rounded=0;fontSize=13;fontColor=#000000;entryX=0.5;entryY=0;entryDx=0;entryDy=0;exitX=0.403;exitY=1.041;exitDx=0;exitDy=0;exitPerimeter=0;" edge="1" parent="TlHhYiuxW51YW4MIgqar-47" source="TlHhYiuxW51YW4MIgqar-40" target="TlHhYiuxW51YW4MIgqar-22">
          <mxGeometry width="100" relative="1" as="geometry">
            <mxPoint x="-220" y="110" as="sourcePoint" />
            <mxPoint x="-120" y="110" as="targetPoint" />
          </mxGeometry>
        </mxCell>
        <mxCell id="TlHhYiuxW51YW4MIgqar-41" value="" style="sketch=0;points=[[0,0,0],[0.25,0,0],[0.5,0,0],[0.75,0,0],[1,0,0],[0,1,0],[0.25,1,0],[0.5,1,0],[0.75,1,0],[1,1,0],[0,0.25,0],[0,0.5,0],[0,0.75,0],[1,0.25,0],[1,0.5,0],[1,0.75,0]];outlineConnect=0;fontColor=#232F3E;gradientColor=#F78E04;gradientDirection=north;fillColor=#D05C17;strokeColor=#ffffff;dashed=0;verticalLabelPosition=bottom;verticalAlign=top;align=center;html=1;fontSize=12;fontStyle=0;aspect=fixed;shape=mxgraph.aws4.resourceIcon;resIcon=mxgraph.aws4.batch;container=0;" vertex="1" parent="TlHhYiuxW51YW4MIgqar-47">
          <mxGeometry x="27" y="99.99646614060646" width="36.457617332490166" height="36.457617332490166" as="geometry" />
        </mxCell>
        <mxCell id="TlHhYiuxW51YW4MIgqar-42" value="" style="edgeStyle=orthogonalEdgeStyle;rounded=0;orthogonalLoop=1;jettySize=auto;html=1;" edge="1" parent="TlHhYiuxW51YW4MIgqar-47" source="TlHhYiuxW51YW4MIgqar-43" target="TlHhYiuxW51YW4MIgqar-40">
          <mxGeometry relative="1" as="geometry" />
        </mxCell>
        <mxCell id="TlHhYiuxW51YW4MIgqar-43" value="" style="sketch=0;points=[[0,0,0],[0.25,0,0],[0.5,0,0],[0.75,0,0],[1,0,0],[0,1,0],[0.25,1,0],[0.5,1,0],[0.75,1,0],[1,1,0],[0,0.25,0],[0,0.5,0],[0,0.75,0],[1,0.25,0],[1,0.5,0],[1,0.75,0]];outlineConnect=0;fontColor=#232F3E;gradientColor=#60A337;gradientDirection=north;fillColor=#277116;strokeColor=#ffffff;dashed=0;verticalLabelPosition=bottom;verticalAlign=top;align=center;html=1;fontSize=12;fontStyle=0;aspect=fixed;shape=mxgraph.aws4.resourceIcon;resIcon=mxgraph.aws4.s3;container=0;" vertex="1" parent="TlHhYiuxW51YW4MIgqar-47">
          <mxGeometry x="240" y="29.129999999999995" width="48" height="48" as="geometry" />
        </mxCell>
        <mxCell id="TlHhYiuxW51YW4MIgqar-44" value="&lt;b&gt;S3 Bucket&lt;/b&gt;" style="text;html=1;align=center;verticalAlign=middle;resizable=0;points=[];autosize=1;strokeColor=none;fillColor=none;container=0;" vertex="1" parent="TlHhYiuxW51YW4MIgqar-47">
          <mxGeometry x="235" width="80" height="30" as="geometry" />
        </mxCell>
        <mxCell id="CMRdcGU0UILxmbiFrGiH-15" value="" style="sketch=0;points=[[0,0,0],[0.25,0,0],[0.5,0,0],[0.75,0,0],[1,0,0],[0,1,0],[0.25,1,0],[0.5,1,0],[0.75,1,0],[1,1,0],[0,0.25,0],[0,0.5,0],[0,0.75,0],[1,0.25,0],[1,0.5,0],[1,0.75,0]];outlineConnect=0;fontColor=#232F3E;gradientColor=#F78E04;gradientDirection=north;fillColor=#D05C17;strokeColor=#ffffff;dashed=0;verticalLabelPosition=bottom;verticalAlign=top;align=center;html=1;fontSize=12;fontStyle=0;aspect=fixed;shape=mxgraph.aws4.resourceIcon;resIcon=mxgraph.aws4.ecr;" parent="1" vertex="1">
          <mxGeometry x="878.73" y="155.0034373539357" width="42.53388688790519" height="42.53388688790519" as="geometry" />
        </mxCell>
        <mxCell id="CMRdcGU0UILxmbiFrGiH-58" value="" style="edgeStyle=orthogonalEdgeStyle;html=1;endArrow=none;elbow=vertical;startArrow=block;startFill=1;strokeColor=#545B64;rounded=0;fontSize=13;fontColor=#000000;entryX=0;entryY=0.5;entryDx=0;entryDy=0;entryPerimeter=0;exitX=1;exitY=0.25;exitDx=0;exitDy=0;" parent="1" source="-QjtrjUzRDEMRZ5MF8oH-14" target="CMRdcGU0UILxmbiFrGiH-15" edge="1">
          <mxGeometry width="100" relative="1" as="geometry">
            <mxPoint x="840" y="148.40559786643195" as="sourcePoint" />
            <mxPoint x="879.5" y="147.68579362679048" as="targetPoint" />
          </mxGeometry>
        </mxCell>
        <mxCell id="CMRdcGU0UILxmbiFrGiH-60" value="" style="edgeStyle=orthogonalEdgeStyle;rounded=0;orthogonalLoop=1;jettySize=auto;html=1;fontSize=13;fontColor=#000000;entryX=1;entryY=0.5;entryDx=0;entryDy=0;entryPerimeter=0;" parent="1" source="CMRdcGU0UILxmbiFrGiH-16" target="CMRdcGU0UILxmbiFrGiH-15" edge="1">
          <mxGeometry relative="1" as="geometry" />
        </mxCell>
      </root>
    </mxGraphModel>
  </diagram>
</mxfile>
